<svg id="Capa_1" data-name="Capa 1" xmlns="http://www.w3.org/2000/svg" viewBox="0 0 842 777.47"><defs><style>.cls-1{fill:#52ae32;}</style></defs><path class="cls-1" d="M374.63,435.44c6.82-13.19,13-45.26,58.15-46.46,53.14-1.41,182.38-7.56,182.38-7.56s145.15-27.93,172.06-142.29a22,22,0,0,0-21.69-27l-392.48,5-2,.12a89.47,89.47,0,0,0-82.39,75.34L246.57,556.08a14.53,14.53,0,0,0,13.65,16.76c38.27,2,67.14-15.23,72.27-24.53Z"/><path class="cls-1" d="M374.63,435.44c6.82-13.19,13-45.26,58.15-46.46,53.14-1.41,182.38-7.56,182.38-7.56s145.15-27.93,172.06-142.29a22,22,0,0,0-21.69-27l-392.48,5-2,.12a89.47,89.47,0,0,0-82.39,75.34L246.57,556.08a14.53,14.53,0,0,0,13.65,16.76c38.27,2,67.14-15.23,72.27-24.53Z"/><path class="cls-1" d="M258.53,309.53C248.46,371.76,233,454.91,231.12,470.44c-.15,1.22-4.49,22.41-5,23.51-4.19,8.47-20.5,24.33-61.32,23.07a12.88,12.88,0,0,1-12.31-14.61c7-50.77,35-193.35,37.15-209.21a10.54,10.54,0,0,1,.58-2.34c.18-.5.43-1.13.76-1.87C207.67,251,265.16,268.59,258.53,309.53Z"/><path class="cls-1" d="M120.33,459.18l-40.85,0c-9.87.64-17.36-9.06-15.37-19.9L83.28,334.91C84.73,327,90.9,321,98.11,320.55l40.85-.3c9.87-.63,17.36,9.06,15.37,19.9L135.16,444.83C133.71,452.75,127.54,458.71,120.33,459.18Z"/></svg>