<svg id="Capa_1" data-name="Capa 1" xmlns="http://www.w3.org/2000/svg" viewBox="0 0 1000 303"><defs><style>.cls-1{fill:#fff;}</style></defs><path class="cls-1" d="M107.05,160c.12,11.8.12,23.36.12,34.91v34.53a6.73,6.73,0,0,1-.08,1.62,6.91,6.91,0,0,1-8,5.67H91a11.81,11.81,0,0,1-9.42-10.3V166.9a12.56,12.56,0,0,1,12.56-12.56h6.41a4.66,4.66,0,0,1,.65,0,6,6,0,0,1,5.88,6.17ZM62.22,186.86a1,1,0,0,0,0,.25V205A14.05,14.05,0,0,0,76.28,219h.13V172.92A14.06,14.06,0,0,0,62.22,186.86Zm219.23-30h-7.91a6.91,6.91,0,0,0-8.29,5.18,7.15,7.15,0,0,0-.13,2.35v34.16l.51,35a6.15,6.15,0,0,0,6,6.31c.26,0,.53,0,.79,0h6.28a12.55,12.55,0,0,0,12.55-11.81V168.28A11.79,11.79,0,0,0,281.45,156.85Zm15.82,16.07H297V219a14.06,14.06,0,0,0,14.19-13.94v-18A14.07,14.07,0,0,0,297.27,172.92ZM140.52,133.85c-11.2,0-16.81,5.26-16.81,15.94v86c0,11,5.61,16.46,16.64,16.46H248.23V232.63h-100q-4.2,0-4.2-4.21V202.5H247.7V183.24H144V158c0-2.63,1.4-4,4.2-4h100V133.85Zm514.38,95.8,9.1,18.74a33.1,33.1,0,0,1,1.4,3.85h23.12a19.1,19.1,0,0,0-1.93-5.25l-49-98.25c-6-11.91-14.54-17.51-28.37-17.51-15.42,0-23.3,6.83-31,22.59L533,247a38.53,38.53,0,0,0-1.92,5.25h24a28.07,28.07,0,0,1,1.4-4l8.76-18.56,8.58-18.39,25.74-54.11c2.46-5.08,5.26-6.83,10-6.83,4.55,0,7.7,2.1,10,7l26.27,53.94Zm55.69,7.53c5.95,11.91,14.54,17.51,28.37,17.51,15.41,0,23.29-6.83,31-22.59l45.18-93a38.75,38.75,0,0,0,1.93-5.26h-24a27.65,27.65,0,0,1-1.4,4l-42,89.84c-2.45,5.08-5.6,6.83-10.33,6.83-4.55,0-8-2.1-10.33-7l-43.43-89.84a33.24,33.24,0,0,1-1.4-3.86H659.63a19.43,19.43,0,0,0,1.92,5.26Zm131.7-103.33c-11.2,0-16.81,5.26-16.81,15.94v86c0,11,5.61,16.46,16.64,16.46H950V232.63H850q-4.2,0-4.2-4.21V202.5H949.48V183.24H845.8V158c0-2.63,1.4-4,4.2-4H950V133.85ZM322,130.53l-5.9-10-4.77-7.66C280,69,242,50,188.34,50,142,51,103,67,73,114c-4.44,8.19-9,15-12,24.94l17.3,8.31A81.53,81.53,0,0,1,83.84,134l1.28-2.3c1-2.13,26.41-60.84,104.73-61.94,45.36-.64,88.31,24.36,110.88,63.7l2.77,4.4,2.51,4,55.84,89.59c11.08,15.51,13.58,23.37,30.75,23.37,13.92,0,22-7.71,26.6-24.87l19.95-74.26c1.24-4.72,3.1-6.65,6.65-6.65s5.42,1.93,6.65,6.65l19.8,74.26c4.49,17.16,12.53,24.87,26.61,24.87,16.86,0,24.12-10,26.44-25.05l13.31-89.66a46.58,46.58,0,0,0,.46-6.13H519.74a35.13,35.13,0,0,1-.47,5.25l-12.84,87.92c-.77,5.6-3.55,8.05-8,8.05-3.4,0-6-1.22-7.58-7.18L471,153.57c-4.17-15.41-10.67-22.24-25.21-22.24-14.85,0-21,6.83-25.21,22.24L400.64,228c-1.55,6-5.48,6.75-8.88,6.75-4.49,0-7.76-7.75-11.08-12.18Z"/></svg>