<?xml version="1.0" standalone="no"?>
<!DOCTYPE svg PUBLIC "-//W3C//DTD SVG 1.1//EN" "http://www.w3.org/Graphics/SVG/1.1/DTD/svg11.dtd" >
<svg xmlns="http://www.w3.org/2000/svg" xmlns:xlink="http://www.w3.org/1999/xlink" version="1.1">
<metadata>
Created by FontForge 20170812 at Thu Jul  7 19:00:14 2022
 By www-data
Copyright \(c\) 2014-2022 Typodermic Fonts Inc. All rights reserved.
</metadata>
<defs>
<font id="NulshockRg-Bold" horiz-adv-x="939" >
  <font-face 
    font-family="Nulshock Rg"
    font-weight="700"
    font-stretch="normal"
    units-per-em="1000"
    panose-1="4 5 8 7 2 11 2 2 10 4"
    ascent="748"
    descent="-252"
    x-height="676"
    cap-height="676"
    bbox="-215 -253 1601 948"
    underline-thickness="20"
    underline-position="-143"
    stemh="179"
    stemv="182"
    unicode-range="U+0017-25CA"
  />
<missing-glyph horiz-adv-x="972" 
d="M33 636c0 113 52 186 196 186h515c142 0 195 -73 195 -186v-693c0 -114 -53 -188 -195 -188h-515c-144 0 -196 74 -196 188v693zM220 626v-211h155c56 0 85 2 108 2c30 0 40 -13 40 -32c0 -21 -23 -33 -84 -106c-39 -45 -58 -76 -62 -87h217c6 10 31 35 96 88
c61 50 84 107 84 145c0 97 -58 201 -201 201h-353zM583 134h-215v-184h215v184z" />
    <glyph glyph-name=".notdef" horiz-adv-x="972" 
d="M33 636c0 113 52 186 196 186h515c142 0 195 -73 195 -186v-693c0 -114 -53 -188 -195 -188h-515c-144 0 -196 74 -196 188v693zM220 626v-211h155c56 0 85 2 108 2c30 0 40 -13 40 -32c0 -21 -23 -33 -84 -106c-39 -45 -58 -76 -62 -87h217c6 10 31 35 96 88
c61 50 84 107 84 145c0 97 -58 201 -201 201h-353zM583 134h-215v-184h215v184z" />
    <glyph glyph-name="uni0017" horiz-adv-x="222" 
 />
    <glyph glyph-name="space" unicode=" " horiz-adv-x="403" 
 />
    <glyph glyph-name="exclam" unicode="!" horiz-adv-x="296" 
d="M57 176h182v-176h-182v176zM57 676h182v-443h-182v443z" />
    <glyph glyph-name="quotedbl" unicode="&#x22;" horiz-adv-x="483" 
d="M190 384h-134l-16 292h167zM426 384h-134l-16 292h167z" />
    <glyph glyph-name="numbersign" unicode="#" horiz-adv-x="639" 
d="M444 0h-109l35 180h-145l-32 -180h-109l34 180h-101v81h115l30 155h-117v82h131l36 178h108l-35 -178h143l33 178h109l-34 -178h83v-82h-97l-29 -155h98v-81h-113zM384 261l29 155h-143l-29 -155h143z" />
    <glyph glyph-name="dollar" unicode="$" horiz-adv-x="750" 
d="M314 691h142v-83h244v-132h-456c-29 0 -50 -15 -50 -41s21 -41 50 -41h300c121 0 182 -63 182 -163c0 -85 -59 -162 -187 -162h-83v-83h-142v83h-266v129h466c29 0 52 13 52 44s-23 43 -52 43h-311c-109 0 -172 67 -172 161c0 90 59 162 182 162h101v83z" />
    <glyph glyph-name="percent" unicode="%" horiz-adv-x="1084" 
d="M500 490c0 -113 -80 -186 -212 -186h-28c-134 0 -212 74 -212 186c0 113 81 186 212 186h28c131 0 212 -71 212 -186zM165 490c0 -39 17 -69 95 -69h28c79 0 95 30 95 69c0 40 -16 70 -95 70h-28c-78 0 -95 -27 -95 -70zM303 0h-154l627 676h154zM1035 186
c0 -113 -80 -186 -212 -186h-28c-134 0 -212 74 -212 186c0 113 81 186 212 186h28c131 0 212 -71 212 -186zM700 186c0 -39 17 -69 95 -69h28c79 0 95 30 95 69c0 40 -16 70 -95 70h-28c-78 0 -95 -27 -95 -70z" />
    <glyph glyph-name="ampersand" unicode="&#x26;" horiz-adv-x="915" 
d="M660 17l-62 54c-61 -53 -111 -71 -189 -71h-196c-126 0 -189 74 -189 185c0 83 30 145 138 182l82 28l-33 29c-57 50 -72 84 -72 130c0 58 41 122 144 122h262c111 0 161 -55 161 -137c0 -68 -37 -114 -94 -138l-103 -43l97 -84l72 65c7 7 13 14 16 19h210
c-7 -12 -20 -23 -31 -33l-158 -147l168 -149c12 -10 20 -19 28 -29h-235c-4 5 -10 11 -16 17zM288 162h120c35 0 53 4 75 15l-127 113l-85 -35c-25 -10 -39 -27 -39 -46c0 -28 16 -47 56 -47zM341 525c0 -15 4 -23 18 -34l44 -38l76 25c34 11 43 19 43 39c0 21 -8 35 -40 35
h-92c-32 0 -49 -5 -49 -27z" />
    <glyph glyph-name="quotesingle" unicode="'" horiz-adv-x="247" 
d="M190 384h-134l-16 292h167z" />
    <glyph glyph-name="parenleft" unicode="(" horiz-adv-x="385" 
d="M61 305c0 172 54 354 182 488h133c-111 -132 -194 -272 -194 -488c0 -217 83 -355 194 -488h-133c-128 135 -182 316 -182 488z" />
    <glyph glyph-name="parenright" unicode=")" horiz-adv-x="385" 
d="M324 305c0 -172 -54 -353 -182 -488h-133c111 133 193 271 193 488c0 216 -83 356 -193 488h133c128 -134 182 -316 182 -488z" />
    <glyph glyph-name="asterisk" unicode="*" horiz-adv-x="562" 
d="M15 448l29 85l199 -73l-8 216h90l-8 -213l203 75l27 -86l-205 -58l134 -170l-73 -52l-119 178l-120 -181l-72 53l133 168z" />
    <glyph glyph-name="plus" unicode="+" horiz-adv-x="632" 
d="M581 408v-133h-199v-198h-133v198h-200v133h200v201h133v-201h199z" />
    <glyph glyph-name="comma" unicode="," horiz-adv-x="300" 
d="M71 176h182l-83 -338h-142z" />
    <glyph glyph-name="hyphen" unicode="-" horiz-adv-x="336" 
d="M32 280v115h272v-115h-272z" />
    <glyph glyph-name="period" unicode="." horiz-adv-x="300" 
d="M59 176h182v-176h-182v176z" />
    <glyph glyph-name="slash" unicode="/" horiz-adv-x="617" 
d="M135 -116h-133c1 8 5 16 10 24l455 783c5 9 8 17 10 24h133c-1 -8 -5 -16 -9 -24l-456 -783c-5 -9 -8 -17 -10 -24z" />
    <glyph glyph-name="zero" unicode="0" horiz-adv-x="893" 
d="M497 0h-103c-121 0 -210 42 -272 110c-54 59 -87 139 -87 228c0 98 42 187 109 249c60 55 141 89 250 89h103c109 0 190 -34 250 -89c67 -62 109 -151 109 -249c0 -89 -33 -169 -87 -228c-62 -68 -151 -110 -272 -110zM497 497h-103c-61 0 -99 -17 -128 -44
c-31 -29 -50 -71 -50 -116c0 -41 16 -79 42 -107c29 -32 72 -52 136 -52h103c64 0 107 20 136 52c26 28 42 66 42 107c0 45 -19 87 -50 116c-29 27 -67 44 -128 44z" />
    <glyph glyph-name="one" unicode="1" horiz-adv-x="403" 
d="M28 676h150c126 0 167 -54 167 -180v-496h-180v469c0 19 -8 28 -26 28h-111v179z" />
    <glyph glyph-name="two" unicode="2" horiz-adv-x="778" 
d="M32 497v179h510c134 0 213 -82 213 -192c0 -77 -47 -148 -134 -180l-305 -111c-5 -2 -8 -6 -8 -10c0 -6 5 -10 11 -10h428v-173h-578c-106 0 -151 67 -151 132c0 46 20 98 99 130l395 158c23 9 34 21 34 40c0 26 -16 37 -46 37h-468z" />
    <glyph glyph-name="three" unicode="3" horiz-adv-x="770" 
d="M41 676h585c75 0 113 -43 113 -99c0 -37 -18 -62 -51 -87l-110 -80c-3 -2 -4 -6 -4 -8c0 -4 2 -7 7 -8c104 -11 176 -71 176 -194c0 -105 -78 -200 -216 -200h-502v173h448c45 0 61 24 61 55s-16 54 -61 54h-136c-53 0 -66 28 -66 59c0 28 14 43 41 60l117 74
c7 4 10 7 10 13c0 5 -4 9 -11 9h-401v179z" />
    <glyph glyph-name="four" unicode="4" horiz-adv-x="851" 
d="M803 0h-182v94h-471c-52 0 -82 13 -101 34c-17 19 -25 45 -25 74c0 20 5 41 21 62c9 12 20 23 45 41l481 352c34 25 61 34 94 34c35 0 72 -10 99 -36c23 -22 39 -57 39 -119v-536zM621 252v209c0 13 -8 20 -15 20c-6 0 -9 -1 -16 -6l-282 -201c-5 -3 -7 -6 -7 -11
c0 -6 4 -11 11 -11h309z" />
    <glyph glyph-name="five" unicode="5" horiz-adv-x="823" 
d="M39 173h523c23 0 38 6 48 16c9 9 14 22 14 38s-5 29 -14 38c-10 10 -25 15 -48 15h-448c-39 0 -63 20 -61 63l15 268c2 43 26 65 69 65h645v-179h-519c-8 0 -12 -4 -13 -12l-6 -66c-1 -11 2 -15 14 -15h323c73 0 120 -17 155 -45c46 -37 71 -94 71 -158
c0 -52 -16 -99 -46 -134c-36 -41 -92 -67 -178 -67h-544v173z" />
    <glyph glyph-name="six" unicode="6" horiz-adv-x="798" 
d="M261 676h219c-6 -18 -18 -37 -29 -52l-110 -156c-2 -3 -3 -5 -3 -7s1 -4 3 -4c10 0 25 9 102 9h90c85 0 145 -29 187 -75c38 -42 61 -98 61 -158c0 -52 -17 -101 -46 -140c-41 -56 -107 -93 -202 -93h-253c-96 0 -153 30 -194 76c-37 41 -61 96 -61 157
c0 50 13 94 52 154l173 266c5 7 9 16 11 23zM302 173h213c32 0 51 9 64 23s20 32 20 51c0 17 -5 33 -15 45c-14 18 -35 29 -69 29h-213c-34 0 -55 -11 -69 -29c-10 -12 -15 -28 -15 -45c0 -19 7 -37 20 -51s32 -23 64 -23z" />
    <glyph glyph-name="seven" unicode="7" horiz-adv-x="799" 
d="M536 497h-517v179h615c54 0 91 -18 116 -47c22 -25 35 -57 35 -93c0 -26 -7 -53 -39 -100l-279 -410c-8 -11 -11 -18 -14 -26h-228c4 9 8 18 15 28l308 436c5 7 6 12 6 17c0 8 -4 16 -18 16z" />
    <glyph glyph-name="eight" unicode="8" horiz-adv-x="833" 
d="M587 0h-341c-80 0 -132 26 -167 67c-29 34 -47 78 -47 126c0 62 25 121 75 147c-44 29 -68 79 -68 137c0 57 20 102 51 135c39 42 95 64 166 64h321c71 0 127 -22 166 -64c31 -33 51 -78 51 -135c0 -58 -24 -108 -68 -137c50 -26 75 -85 75 -147c0 -48 -18 -92 -47 -126
c-35 -41 -87 -67 -167 -67zM544 278h-255c-27 0 -41 -7 -52 -19c-9 -10 -15 -23 -15 -37s5 -27 14 -38c10 -12 26 -20 53 -20h255c27 0 43 8 53 20c9 11 14 24 14 38s-6 27 -15 37c-11 12 -25 19 -52 19zM545 506h-257c-25 0 -40 -8 -50 -20c-7 -9 -12 -21 -12 -33
s5 -24 12 -33c10 -13 25 -21 50 -21h257c25 0 40 8 50 21c7 9 12 21 12 33s-5 24 -12 33c-10 12 -25 20 -50 20z" />
    <glyph glyph-name="nine" unicode="9" horiz-adv-x="798" 
d="M543 0h-219c6 18 18 37 29 52l110 156c2 3 3 5 3 7s-1 4 -3 4c-10 0 -25 -9 -102 -9h-90c-85 0 -145 29 -187 75c-38 42 -61 98 -61 158c0 52 17 101 46 140c41 56 107 93 202 93h253c96 0 153 -30 194 -76c37 -41 61 -96 61 -157c0 -50 -13 -94 -52 -154l-173 -266
c-5 -7 -9 -16 -11 -23zM502 503h-213c-32 0 -51 -9 -64 -23s-20 -32 -20 -51c0 -17 5 -33 15 -45c14 -18 35 -29 69 -29h213c34 0 55 11 69 29c10 12 15 28 15 45c0 19 -7 37 -20 51s-32 23 -64 23z" />
    <glyph glyph-name="colon" unicode=":" horiz-adv-x="348" 
d="M83 584h182v-177h-182v177zM83 236h182v-175h-182v175z" />
    <glyph glyph-name="semicolon" unicode=";" horiz-adv-x="348" 
d="M86 584h183v-177h-183v177zM86 236h183l-83 -337h-142z" />
    <glyph glyph-name="less" unicode="&#x3c;" horiz-adv-x="632" 
d="M581 230v-139l-461 152c-46 15 -71 51 -71 99c0 47 27 83 71 97l461 154v-141l-354 -99c-5 -2 -8 -6 -8 -11c0 -6 3 -10 8 -12z" />
    <glyph glyph-name="equal" unicode="=" horiz-adv-x="632" 
d="M582 277v-133h-532v133h532zM582 541v-134h-532v134h532z" />
    <glyph glyph-name="greater" unicode="&#x3e;" horiz-adv-x="632" 
d="M49 91v139l354 100c6 2 9 6 9 12c0 5 -3 9 -9 11l-354 99v141l461 -154c44 -14 71 -50 71 -97c0 -48 -24 -84 -71 -99z" />
    <glyph glyph-name="question" unicode="?" horiz-adv-x="598" 
d="M27 497v179h357c70 0 115 -21 147 -55c29 -31 48 -73 48 -117c0 -61 -25 -116 -102 -176c-66 -52 -88 -76 -95 -95h-181c4 20 19 50 52 89c29 35 52 58 81 81c36 28 44 37 44 55c0 10 -3 19 -9 26c-7 8 -18 13 -34 13h-308zM193 176h182v-176h-182v176z" />
    <glyph glyph-name="at" unicode="@" horiz-adv-x="818" 
d="M632 562h-189c-186 0 -281 -128 -281 -283c0 -168 92 -283 270 -283h336v-132h-330c-269 0 -404 178 -404 415c0 265 172 397 404 397h195c91 0 144 -51 144 -150v-307c0 -80 -45 -133 -130 -133h-157c-142 0 -222 78 -222 194s78 194 222 194h173v57c0 21 -12 31 -31 31
zM382 278c0 -51 30 -85 94 -85h164c16 0 23 9 23 24v146h-187c-64 0 -94 -35 -94 -85z" />
    <glyph glyph-name="A" unicode="A" 
d="M663 566l244 -536c5 -11 8 -20 11 -30h-204c-2 9 -5 16 -8 23l-36 82h-400l-35 -81c-3 -8 -6 -16 -7 -24h-209c3 10 6 19 11 30l242 536c38 84 99 125 196 125c94 0 157 -41 195 -125zM336 254h268l-104 242c-6 15 -18 21 -31 21c-12 0 -23 -5 -30 -21z" />
    <glyph glyph-name="B" unicode="B" horiz-adv-x="823" 
d="M96 676h483c71 0 127 -22 166 -64c31 -33 51 -78 51 -135c0 -58 -24 -108 -68 -137c50 -26 75 -85 75 -147c0 -48 -18 -92 -47 -126c-35 -41 -87 -67 -167 -67h-493c-30 0 -45 14 -45 43v591c0 28 15 42 45 42zM232 278v-99c0 -10 4 -15 14 -15h300c27 0 43 8 53 20
c9 11 14 24 14 38s-6 27 -15 37c-11 12 -25 19 -52 19h-314zM232 399h315c25 0 40 8 50 21c7 9 12 21 12 33s-5 24 -12 33c-10 12 -25 20 -50 20h-301c-10 0 -14 -5 -14 -15v-92z" />
    <glyph glyph-name="C" unicode="C" horiz-adv-x="783" 
d="M748 178v-178h-354c-121 0 -210 42 -272 110c-54 59 -87 139 -87 228c0 98 42 187 109 249c60 55 141 89 250 89h354v-179h-354c-61 0 -99 -17 -128 -44c-31 -29 -50 -71 -50 -116c0 -41 16 -79 42 -107c29 -32 72 -52 136 -52h354z" />
    <glyph glyph-name="D" unicode="D" horiz-adv-x="855" 
d="M94 676h365c109 0 190 -34 250 -89c67 -62 109 -151 109 -249c0 -89 -33 -169 -87 -228c-62 -68 -151 -110 -272 -110h-365c-29 0 -44 14 -44 43v591c0 28 15 42 44 42zM459 497h-215c-9 0 -13 -4 -13 -14v-291c0 -10 4 -14 13 -14h215c64 0 107 20 136 52
c26 28 42 66 42 107c0 45 -19 87 -50 116c-29 27 -67 44 -128 44z" />
    <glyph glyph-name="E" unicode="E" horiz-adv-x="795" 
d="M145 676h615v-179h-514c-11 0 -16 -6 -16 -17v-77h527v-130h-527v-82c0 -12 5 -18 16 -18h514v-173h-616c-63 0 -95 31 -95 94v491c0 61 32 91 96 91z" />
    <glyph glyph-name="F" unicode="F" horiz-adv-x="790" 
d="M171 676h589v-179h-502c-19 0 -28 -10 -28 -30v-73h527v-168h-527v-226h-181v552c0 84 41 124 122 124z" />
    <glyph glyph-name="G" unicode="G" horiz-adv-x="807" 
d="M717 0h-323c-121 0 -210 42 -272 110c-54 59 -87 139 -87 228c0 98 42 187 109 249c60 55 141 89 250 89h365v-179h-365c-61 0 -99 -17 -128 -44c-31 -29 -50 -71 -50 -116c0 -41 16 -79 42 -107c29 -32 72 -55 136 -55h173c9 0 13 4 13 14v181h180v-327
c0 -29 -14 -43 -43 -43z" />
    <glyph glyph-name="H" unicode="H" horiz-adv-x="870" 
d="M636 676h182v-676h-182v261h-403v-261h-182v676h182v-245h403v245z" />
    <glyph glyph-name="I" unicode="I" horiz-adv-x="284" 
d="M51 676h182v-676h-182v676z" />
    <glyph glyph-name="J" unicode="J" horiz-adv-x="709" 
d="M397 0h-377v173h377c60 0 84 29 84 84v419h183v-411c0 -166 -85 -265 -267 -265z" />
    <glyph glyph-name="K" unicode="K" horiz-adv-x="871" 
d="M50 676h183v-277l308 249c10 8 21 19 28 28h253c-4 -6 -12 -13 -18 -18l-372 -288c-4 -3 -6 -6 -6 -11s1 -7 6 -11l399 -323c9 -8 18 -16 26 -25h-270c-8 9 -18 18 -30 28l-324 271v-299h-183v676z" />
    <glyph glyph-name="L" unicode="L" horiz-adv-x="777" 
d="M757 0h-491c-166 0 -220 73 -220 220v456h182v-439c0 -49 13 -64 60 -64h469v-173z" />
    <glyph glyph-name="M" unicode="M" horiz-adv-x="1138" 
d="M568 -14c-48 0 -93 19 -114 62l-205 425c-2 5 -8 8 -13 8c-8 0 -16 -6 -16 -18v-463h-174v495c0 76 23 123 63 155c30 24 70 41 118 41c86 0 136 -51 171 -126l153 -332c4 -10 9 -13 17 -13s13 3 17 13l153 332c35 75 85 126 171 126c48 0 88 -17 118 -41
c40 -32 63 -79 63 -155v-495h-174v463c0 12 -8 18 -16 18c-5 0 -11 -3 -13 -8l-205 -425c-21 -43 -66 -62 -114 -62z" />
    <glyph glyph-name="N" unicode="N" 
d="M889 676v-545c0 -102 -61 -145 -127 -145c-57 0 -100 16 -132 53l-371 429c-5 6 -10 9 -16 9c-9 0 -17 -7 -17 -19v-458h-178v533c0 115 66 158 157 158c64 0 104 -17 146 -67l330 -395c5 -7 11 -8 17 -8c8 0 14 6 14 18v437h177z" />
    <glyph glyph-name="O" unicode="O" horiz-adv-x="932" 
d="M536 0h-142c-121 0 -210 42 -272 110c-54 59 -87 139 -87 228c0 98 42 187 109 249c60 55 141 89 250 89h142c109 0 190 -34 250 -89c67 -62 109 -151 109 -249c0 -89 -33 -169 -87 -228c-62 -68 -151 -110 -272 -110zM536 497h-142c-61 0 -99 -17 -128 -44
c-31 -29 -50 -71 -50 -116c0 -41 16 -79 42 -107c29 -32 72 -52 136 -52h142c64 0 107 20 136 52c26 28 42 66 42 107c0 45 -19 87 -50 116c-29 27 -67 44 -128 44z" />
    <glyph glyph-name="P" unicode="P" horiz-adv-x="843" 
d="M94 676h448c96 0 158 -28 203 -73c47 -47 75 -112 75 -180c0 -60 -22 -117 -59 -162c-46 -55 -115 -91 -219 -91h-311v-170h-181v634c0 28 15 42 44 42zM231 336h315c40 0 63 12 78 32c10 13 16 29 16 48c0 20 -6 37 -17 51c-15 18 -38 30 -77 30h-302
c-8 0 -13 -4 -13 -14v-147z" />
    <glyph glyph-name="Q" unicode="Q" horiz-adv-x="917" 
d="M545 18h-161c-117 0 -204 41 -264 107c-53 58 -85 135 -85 222c0 95 41 182 106 242c58 54 137 87 243 87h161c106 0 185 -33 243 -87c65 -60 106 -147 106 -242c0 -96 -42 -200 -127 -258l122 -135c8 -8 14 -18 18 -26h-244c-3 5 -8 12 -77 92c-13 -1 -27 -2 -41 -2z
M549 497h-170c-58 0 -94 -16 -121 -42c-30 -27 -48 -67 -48 -110c0 -39 15 -75 40 -102c28 -31 69 -50 129 -50h170c60 0 101 19 129 50c25 27 40 63 40 102c0 43 -18 83 -48 110c-27 26 -63 42 -121 42z" />
    <glyph glyph-name="R" unicode="R" horiz-adv-x="842" 
d="M231 240v-240h-181v634c0 28 15 42 45 42h480c83 0 136 -25 173 -64c33 -35 54 -82 54 -133c0 -54 -16 -105 -64 -140c45 -27 65 -63 65 -140v-135c0 -29 1 -45 3 -64h-183c-2 15 -3 30 -3 45v135c0 43 -21 60 -74 60h-315zM231 394h320c25 0 40 9 51 22
c8 10 13 22 13 35c0 14 -5 28 -15 38c-10 11 -26 18 -49 18h-305c-10 0 -15 -6 -15 -15v-98z" />
    <glyph glyph-name="S" unicode="S" horiz-adv-x="812" 
d="M757 676v-179h-486c-22 0 -34 -5 -42 -13c-9 -9 -14 -21 -14 -35c0 -15 7 -28 17 -36c8 -7 18 -10 39 -10h297c76 0 127 -24 163 -61s58 -87 58 -140c0 -49 -19 -96 -50 -132c-37 -43 -91 -70 -171 -70h-524v173h492c28 0 42 6 51 17c7 8 11 19 11 31c0 14 -5 27 -14 36
c-9 10 -22 15 -48 15h-275c-90 0 -142 24 -178 61s-57 86 -57 141c0 54 22 104 58 141s87 61 177 61h496z" />
    <glyph glyph-name="T" unicode="T" horiz-adv-x="816" 
d="M20 676h775v-179h-296v-497h-182v497h-297v179z" />
    <glyph glyph-name="U" unicode="U" horiz-adv-x="869" 
d="M586 0h-303c-170 0 -237 65 -237 216v460h182v-440c0 -42 20 -63 65 -63h281c45 0 67 20 67 63v440h182v-460c0 -151 -67 -216 -237 -216z" />
    <glyph glyph-name="V" unicode="V" 
d="M274 110l-244 536c-5 11 -8 20 -11 30h214c2 -9 4 -16 7 -24l202 -467c6 -15 17 -21 29 -21s21 5 28 21l200 467c3 7 6 16 8 24h211c-3 -10 -6 -19 -11 -30l-242 -536c-38 -84 -99 -124 -195 -124c-95 0 -158 40 -196 124z" />
    <glyph glyph-name="W" unicode="W" horiz-adv-x="1251" 
d="M628 530c-11 0 -18 -5 -22 -20l-105 -373c-29 -104 -92 -151 -196 -151c-123 0 -182 65 -196 151l-84 507c-2 13 -3 22 -3 32h191c0 -7 1 -17 2 -26l71 -462c2 -16 10 -23 24 -23c12 0 20 5 24 21l103 363c28 97 82 142 191 142c108 0 159 -45 184 -137l101 -368
c4 -16 12 -21 24 -21c14 0 21 7 24 23l77 462c2 10 2 20 2 26h189c0 -10 -1 -18 -3 -32l-90 -508c-16 -89 -76 -150 -198 -150c-102 0 -164 49 -191 151l-97 373c-4 15 -11 20 -22 20z" />
    <glyph glyph-name="X" unicode="X" horiz-adv-x="1008" 
d="M719 676h235c-5 -7 -12 -15 -20 -22l-303 -293l342 -340c7 -7 12 -14 17 -21h-259c-5 8 -10 14 -16 20l-215 224l-227 -224c-7 -7 -13 -14 -18 -20h-238c5 8 10 13 18 21l349 340l-302 293c-9 8 -14 14 -19 22h252c4 -6 10 -14 17 -22l179 -182l189 182c8 7 14 15 19 22z
" />
    <glyph glyph-name="Y" unicode="Y" horiz-adv-x="854" 
d="M330 315l-307 338c-10 11 -14 16 -17 23h223c2 -5 7 -14 16 -23l170 -185c4 -4 8 -7 14 -7s10 3 14 7l169 185c9 9 15 18 17 23h219c-4 -7 -8 -12 -18 -23l-317 -350v-303h-183v315z" />
    <glyph glyph-name="Z" unicode="Z" horiz-adv-x="798" 
d="M340 173h425v-173h-596c-53 0 -85 18 -105 44c-16 21 -25 46 -25 73c0 24 9 50 29 74c9 10 21 19 47 37l363 255c2 1 3 4 3 6c0 4 -3 8 -8 8h-429v179h583c51 0 79 -15 99 -36s31 -49 31 -74c0 -18 -4 -35 -11 -51s-17 -30 -47 -52l-365 -272c-4 -3 -6 -6 -6 -9
c0 -5 4 -9 12 -9z" />
    <glyph glyph-name="bracketleft" unicode="[" horiz-adv-x="385" 
d="M116 -183v976h247v-93h-127v-789h127v-94h-247z" />
    <glyph glyph-name="backslash" unicode="\" horiz-adv-x="617" 
d="M615 -116h-133c-2 7 -5 15 -10 24l-456 783c-4 8 -8 16 -9 24h133c2 -7 5 -15 10 -24l455 -783c5 -8 9 -16 10 -24z" />
    <glyph glyph-name="bracketright" unicode="]" horiz-adv-x="385" 
d="M269 793v-976h-248v94h128v789h-128v93h248z" />
    <glyph glyph-name="asciicircum" unicode="^" horiz-adv-x="632" 
d="M204 159h-140l153 461c15 46 50 71 98 71s83 -27 98 -71l153 -461h-140l-99 354c-2 5 -7 8 -12 8s-10 -3 -12 -8z" />
    <glyph glyph-name="underscore" unicode="_" horiz-adv-x="723" 
d="M2 -210v135h725v-135h-725z" />
    <glyph glyph-name="grave" unicode="`" horiz-adv-x="409" 
d="M50 948h190l119 -228h-151z" />
    <glyph glyph-name="a" unicode="a" 
d="M663 566l244 -536c5 -11 8 -20 11 -30h-204c-2 9 -5 16 -8 23l-36 82h-400l-35 -81c-3 -8 -6 -16 -7 -24h-209c3 10 6 19 11 30l242 536c38 84 99 125 196 125c94 0 157 -41 195 -125zM336 254h268l-104 242c-6 15 -18 21 -31 21c-12 0 -23 -5 -30 -21z" />
    <glyph glyph-name="b" unicode="b" horiz-adv-x="823" 
d="M96 676h483c71 0 127 -22 166 -64c31 -33 51 -78 51 -135c0 -58 -24 -108 -68 -137c50 -26 75 -85 75 -147c0 -48 -18 -92 -47 -126c-35 -41 -87 -67 -167 -67h-493c-30 0 -45 14 -45 43v591c0 28 15 42 45 42zM232 278v-99c0 -10 4 -15 14 -15h300c27 0 43 8 53 20
c9 11 14 24 14 38s-6 27 -15 37c-11 12 -25 19 -52 19h-314zM232 399h315c25 0 40 8 50 21c7 9 12 21 12 33s-5 24 -12 33c-10 12 -25 20 -50 20h-301c-10 0 -14 -5 -14 -15v-92z" />
    <glyph glyph-name="c" unicode="c" horiz-adv-x="783" 
d="M748 178v-178h-354c-121 0 -210 42 -272 110c-54 59 -87 139 -87 228c0 98 42 187 109 249c60 55 141 89 250 89h354v-179h-354c-61 0 -99 -17 -128 -44c-31 -29 -50 -71 -50 -116c0 -41 16 -79 42 -107c29 -32 72 -52 136 -52h354z" />
    <glyph glyph-name="d" unicode="d" horiz-adv-x="855" 
d="M94 676h365c109 0 190 -34 250 -89c67 -62 109 -151 109 -249c0 -89 -33 -169 -87 -228c-62 -68 -151 -110 -272 -110h-365c-29 0 -44 14 -44 43v591c0 28 15 42 44 42zM459 497h-215c-9 0 -13 -4 -13 -14v-291c0 -10 4 -14 13 -14h215c64 0 107 20 136 52
c26 28 42 66 42 107c0 45 -19 87 -50 116c-29 27 -67 44 -128 44z" />
    <glyph glyph-name="e" unicode="e" horiz-adv-x="795" 
d="M145 676h615v-179h-514c-11 0 -16 -6 -16 -17v-77h527v-130h-527v-82c0 -12 5 -18 16 -18h514v-173h-616c-63 0 -95 31 -95 94v491c0 61 32 91 96 91z" />
    <glyph glyph-name="f" unicode="f" horiz-adv-x="790" 
d="M171 676h589v-179h-502c-19 0 -28 -10 -28 -30v-73h527v-168h-527v-226h-181v552c0 84 41 124 122 124z" />
    <glyph glyph-name="g" unicode="g" horiz-adv-x="807" 
d="M717 0h-323c-121 0 -210 42 -272 110c-54 59 -87 139 -87 228c0 98 42 187 109 249c60 55 141 89 250 89h365v-179h-365c-61 0 -99 -17 -128 -44c-31 -29 -50 -71 -50 -116c0 -41 16 -79 42 -107c29 -32 72 -55 136 -55h173c9 0 13 4 13 14v181h180v-327
c0 -29 -14 -43 -43 -43z" />
    <glyph glyph-name="h" unicode="h" horiz-adv-x="870" 
d="M636 676h182v-676h-182v261h-403v-261h-182v676h182v-245h403v245z" />
    <glyph glyph-name="i" unicode="i" horiz-adv-x="284" 
d="M51 676h182v-676h-182v676z" />
    <glyph glyph-name="j" unicode="j" horiz-adv-x="709" 
d="M397 0h-377v173h377c60 0 84 29 84 84v419h183v-411c0 -166 -85 -265 -267 -265z" />
    <glyph glyph-name="k" unicode="k" horiz-adv-x="871" 
d="M50 676h183v-277l308 249c10 8 21 19 28 28h253c-4 -6 -12 -13 -18 -18l-372 -288c-4 -3 -6 -6 -6 -11s1 -7 6 -11l399 -323c9 -8 18 -16 26 -25h-270c-8 9 -18 18 -30 28l-324 271v-299h-183v676z" />
    <glyph glyph-name="l" unicode="l" horiz-adv-x="777" 
d="M757 0h-491c-166 0 -220 73 -220 220v456h182v-439c0 -49 13 -64 60 -64h469v-173z" />
    <glyph glyph-name="m" unicode="m" horiz-adv-x="1138" 
d="M568 -14c-48 0 -93 19 -114 62l-205 425c-2 5 -8 8 -13 8c-8 0 -16 -6 -16 -18v-463h-174v495c0 76 23 123 63 155c30 24 70 41 118 41c86 0 136 -51 171 -126l153 -332c4 -10 9 -13 17 -13s13 3 17 13l153 332c35 75 85 126 171 126c48 0 88 -17 118 -41
c40 -32 63 -79 63 -155v-495h-174v463c0 12 -8 18 -16 18c-5 0 -11 -3 -13 -8l-205 -425c-21 -43 -66 -62 -114 -62z" />
    <glyph glyph-name="n" unicode="n" 
d="M889 676v-545c0 -102 -61 -145 -127 -145c-57 0 -100 16 -132 53l-371 429c-5 6 -10 9 -16 9c-9 0 -17 -7 -17 -19v-458h-178v533c0 115 66 158 157 158c64 0 104 -17 146 -67l330 -395c5 -7 11 -8 17 -8c8 0 14 6 14 18v437h177z" />
    <glyph glyph-name="o" unicode="o" horiz-adv-x="932" 
d="M536 0h-142c-121 0 -210 42 -272 110c-54 59 -87 139 -87 228c0 98 42 187 109 249c60 55 141 89 250 89h142c109 0 190 -34 250 -89c67 -62 109 -151 109 -249c0 -89 -33 -169 -87 -228c-62 -68 -151 -110 -272 -110zM536 497h-142c-61 0 -99 -17 -128 -44
c-31 -29 -50 -71 -50 -116c0 -41 16 -79 42 -107c29 -32 72 -52 136 -52h142c64 0 107 20 136 52c26 28 42 66 42 107c0 45 -19 87 -50 116c-29 27 -67 44 -128 44z" />
    <glyph glyph-name="p" unicode="p" horiz-adv-x="843" 
d="M94 676h448c96 0 158 -28 203 -73c47 -47 75 -112 75 -180c0 -60 -22 -117 -59 -162c-46 -55 -115 -91 -219 -91h-311v-170h-181v634c0 28 15 42 44 42zM231 336h315c40 0 63 12 78 32c10 13 16 29 16 48c0 20 -6 37 -17 51c-15 18 -38 30 -77 30h-302
c-8 0 -13 -4 -13 -14v-147z" />
    <glyph glyph-name="q" unicode="q" horiz-adv-x="917" 
d="M545 18h-161c-117 0 -204 41 -264 107c-53 58 -85 135 -85 222c0 95 41 182 106 242c58 54 137 87 243 87h161c106 0 185 -33 243 -87c65 -60 106 -147 106 -242c0 -96 -42 -200 -127 -258l122 -135c8 -8 14 -18 18 -26h-244c-3 5 -8 12 -77 92c-13 -1 -27 -2 -41 -2z
M549 497h-170c-58 0 -94 -16 -121 -42c-30 -27 -48 -67 -48 -110c0 -39 15 -75 40 -102c28 -31 69 -50 129 -50h170c60 0 101 19 129 50c25 27 40 63 40 102c0 43 -18 83 -48 110c-27 26 -63 42 -121 42z" />
    <glyph glyph-name="r" unicode="r" horiz-adv-x="842" 
d="M231 240v-240h-181v634c0 28 15 42 45 42h480c83 0 136 -25 173 -64c33 -35 54 -82 54 -133c0 -54 -16 -105 -64 -140c45 -27 65 -63 65 -140v-135c0 -29 1 -45 3 -64h-183c-2 15 -3 30 -3 45v135c0 43 -21 60 -74 60h-315zM231 394h320c25 0 40 9 51 22
c8 10 13 22 13 35c0 14 -5 28 -15 38c-10 11 -26 18 -49 18h-305c-10 0 -15 -6 -15 -15v-98z" />
    <glyph glyph-name="s" unicode="s" horiz-adv-x="812" 
d="M757 676v-179h-486c-22 0 -34 -5 -42 -13c-9 -9 -14 -21 -14 -35c0 -15 7 -28 17 -36c8 -7 18 -10 39 -10h297c76 0 127 -24 163 -61s58 -87 58 -140c0 -49 -19 -96 -50 -132c-37 -43 -91 -70 -171 -70h-524v173h492c28 0 42 6 51 17c7 8 11 19 11 31c0 14 -5 27 -14 36
c-9 10 -22 15 -48 15h-275c-90 0 -142 24 -178 61s-57 86 -57 141c0 54 22 104 58 141s87 61 177 61h496z" />
    <glyph glyph-name="t" unicode="t" horiz-adv-x="816" 
d="M20 676h775v-179h-296v-497h-182v497h-297v179z" />
    <glyph glyph-name="u" unicode="u" horiz-adv-x="869" 
d="M586 0h-303c-170 0 -237 65 -237 216v460h182v-440c0 -42 20 -63 65 -63h281c45 0 67 20 67 63v440h182v-460c0 -151 -67 -216 -237 -216z" />
    <glyph glyph-name="v" unicode="v" 
d="M274 110l-244 536c-5 11 -8 20 -11 30h214c2 -9 4 -16 7 -24l202 -467c6 -15 17 -21 29 -21s21 5 28 21l200 467c3 7 6 16 8 24h211c-3 -10 -6 -19 -11 -30l-242 -536c-38 -84 -99 -124 -195 -124c-95 0 -158 40 -196 124z" />
    <glyph glyph-name="w" unicode="w" horiz-adv-x="1251" 
d="M628 530c-11 0 -18 -5 -22 -20l-105 -373c-29 -104 -92 -151 -196 -151c-123 0 -182 65 -196 151l-84 507c-2 13 -3 22 -3 32h191c0 -7 1 -17 2 -26l71 -462c2 -16 10 -23 24 -23c12 0 20 5 24 21l103 363c28 97 82 142 191 142c108 0 159 -45 184 -137l101 -368
c4 -16 12 -21 24 -21c14 0 21 7 24 23l77 462c2 10 2 20 2 26h189c0 -10 -1 -18 -3 -32l-90 -508c-16 -89 -76 -150 -198 -150c-102 0 -164 49 -191 151l-97 373c-4 15 -11 20 -22 20z" />
    <glyph glyph-name="x" unicode="x" horiz-adv-x="1008" 
d="M719 676h235c-5 -7 -12 -15 -20 -22l-303 -293l342 -340c7 -7 12 -14 17 -21h-259c-5 8 -10 14 -16 20l-215 224l-227 -224c-7 -7 -13 -14 -18 -20h-238c5 8 10 13 18 21l349 340l-302 293c-9 8 -14 14 -19 22h252c4 -6 10 -14 17 -22l179 -182l189 182c8 7 14 15 19 22z
" />
    <glyph glyph-name="y" unicode="y" horiz-adv-x="854" 
d="M330 315l-307 338c-10 11 -14 16 -17 23h223c2 -5 7 -14 16 -23l170 -185c4 -4 8 -7 14 -7s10 3 14 7l169 185c9 9 15 18 17 23h219c-4 -7 -8 -12 -18 -23l-317 -350v-303h-183v315z" />
    <glyph glyph-name="z" unicode="z" horiz-adv-x="798" 
d="M340 173h425v-173h-596c-53 0 -85 18 -105 44c-16 21 -25 46 -25 73c0 24 9 50 29 74c9 10 21 19 47 37l363 255c2 1 3 4 3 6c0 4 -3 8 -8 8h-429v179h583c51 0 79 -15 99 -36s31 -49 31 -74c0 -18 -4 -35 -11 -51s-17 -30 -47 -52l-365 -272c-4 -3 -6 -6 -6 -9
c0 -5 4 -9 12 -9z" />
    <glyph glyph-name="braceleft" unicode="{" horiz-adv-x="385" 
d="M97 352h19c28 0 43 14 43 46v247c0 96 55 148 133 148h71v-94h-29c-37 0 -53 -23 -53 -63v-225c0 -69 -26 -96 -57 -106c31 -10 57 -37 57 -106v-225c0 -39 16 -63 53 -63h29v-94h-71c-78 0 -133 49 -133 148v247c0 31 -14 45 -43 45h-19v95z" />
    <glyph glyph-name="bar" unicode="|" horiz-adv-x="397" 
d="M138 -183v976h121v-976h-121z" />
    <glyph glyph-name="braceright" unicode="}" horiz-adv-x="385" 
d="M269 352h19v-95h-19c-29 0 -44 -14 -44 -45v-248c0 -95 -55 -147 -132 -147h-72v94h29c37 0 54 24 54 63v225c0 69 25 95 57 106c-32 11 -57 36 -57 106v225c0 40 -17 63 -54 63h-29v94h72c78 0 132 -48 132 -148v-247c0 -32 14 -46 44 -46z" />
    <glyph glyph-name="asciitilde" unicode="~" horiz-adv-x="632" 
d="M581 437v-139c-36 -36 -85 -55 -157 -55c-80 0 -150 71 -234 71c-55 0 -91 -15 -131 -68h-10v138c27 34 67 55 137 55c96 0 167 -72 243 -72c63 0 104 20 143 70h9z" />
    <glyph glyph-name="nbspace" unicode="&#xa0;" horiz-adv-x="403" 
 />
    <glyph glyph-name="exclamdown" unicode="&#xa1;" horiz-adv-x="296" 
d="M239 500h-182v176h182v-176zM239 0h-182v443h182v-443z" />
    <glyph glyph-name="cent" unicode="&#xa2;" horiz-adv-x="788" 
d="M389 691h142v-83h204v-144h-375c-69 0 -101 -9 -127 -36c-23 -24 -35 -55 -35 -94c0 -37 12 -68 35 -91c27 -26 58 -36 127 -36h376v-139h-205v-82h-142v82h-30c-108 0 -168 20 -226 73c-52 47 -82 115 -82 196c0 82 30 150 82 197c58 53 118 74 226 74h30v83z" />
    <glyph glyph-name="sterling" unicode="&#xa3;" horiz-adv-x="747" 
d="M55 279v116h97c0 177 73 281 267 281h274v-179h-281c-62 0 -79 -30 -79 -102h357v-116h-357v-106h362v-173h-645v173h102v106h-97z" />
    <glyph glyph-name="currency" unicode="&#xa4;" horiz-adv-x="778" 
d="M638 -3l-94 100c-45 -29 -98 -48 -155 -48c-58 0 -111 19 -155 48l-95 -100l-90 90l99 96c-30 44 -46 97 -46 153c0 58 17 110 46 158l-96 92l87 88l92 -97c44 30 98 52 158 52c57 0 110 -22 156 -52l93 97l88 -88l-98 -92c30 -48 47 -101 47 -158
c0 -56 -17 -112 -47 -154l99 -95zM389 176c91 0 155 73 155 160c0 90 -64 163 -155 163c-93 0 -159 -73 -159 -163c0 -87 66 -160 159 -160z" />
    <glyph glyph-name="yen" unicode="&#xa5;" horiz-adv-x="822" 
d="M67 281v116h195l-217 256c-9 11 -13 16 -16 23h209c2 -5 7 -14 15 -23l147 -177c5 -6 8 -8 14 -8c5 0 8 2 13 8l146 177c9 11 13 18 15 23h204c-4 -7 -8 -13 -16 -23l-218 -256h193v-116h-254v-71h254v-116h-254v-94h-183v94h-247v116h247v71h-247z" />
    <glyph glyph-name="brokenbar" unicode="&#xa6;" horiz-adv-x="397" 
d="M138 -183v397h121v-397h-121zM138 397v396h121v-396h-121z" />
    <glyph glyph-name="section" unicode="&#xa7;" horiz-adv-x="726" 
d="M486 350h-249c-34 0 -47 -20 -47 -44c0 -22 13 -44 48 -44h249c34 0 46 21 46 45c0 20 -12 43 -47 43zM652 676v-133h-287c-31 0 -47 -15 -47 -42c0 -25 12 -41 46 -41h145c111 0 167 -64 167 -146c0 -109 -57 -154 -131 -159c5 -11 10 -31 10 -53
c0 -82 -48 -164 -172 -164h-315v132h289c33 0 49 17 49 43c0 24 -12 42 -48 42h-123c-119 0 -186 52 -186 153c0 106 65 148 138 152c-11 17 -16 35 -16 53c0 92 55 163 167 163h314z" />
    <glyph glyph-name="dieresis" unicode="&#xa8;" horiz-adv-x="567" 
d="M516 895v-133h-152v133h152zM201 895v-133h-151v133h151z" />
    <glyph glyph-name="copyright" unicode="&#xa9;" horiz-adv-x="881" 
d="M845 338c0 -102 -37 -187 -103 -247c-72 -66 -147 -91 -282 -91h-41c-135 0 -210 25 -282 91c-65 60 -103 145 -103 247c0 103 38 187 103 246c72 66 147 92 282 92h41c135 0 211 -27 282 -92c66 -60 103 -143 103 -246zM757 338c0 152 -100 250 -297 250h-41
c-196 0 -297 -96 -297 -250s100 -250 297 -250h41c198 0 297 96 297 250zM339 337c0 -41 23 -67 72 -67h156v-82h-171c-83 0 -146 66 -146 150c0 88 64 151 168 151h149v-86h-156c-49 0 -72 -26 -72 -66z" />
    <glyph glyph-name="ordfeminine" unicode="&#xaa;" horiz-adv-x="606" 
d="M420 614l146 -332c3 -7 5 -11 6 -18h-128c-1 5 -3 9 -5 14l-21 48h-228l-21 -48c-2 -5 -4 -9 -5 -14h-132c1 7 3 11 6 18l147 332c22 50 58 77 117 77c60 0 96 -27 118 -77zM231 422h146l-59 141c-3 8 -8 12 -14 12s-10 -3 -14 -12z" />
    <glyph glyph-name="guillemotleft" unicode="&#xab;" horiz-adv-x="488" 
d="M127 676h121l-104 -319c-3 -8 -4 -14 -4 -19c0 -6 1 -10 4 -19l104 -319h-121l-99 301c-4 13 -7 24 -7 36c0 13 3 24 7 38zM346 676h121l-104 -319c-3 -8 -4 -14 -4 -19c0 -6 1 -10 4 -19l104 -319h-121l-99 301c-4 13 -7 24 -7 36c0 13 3 24 7 38z" />
    <glyph glyph-name="logicalnot" unicode="&#xac;" horiz-adv-x="632" 
d="M582 416v-416h-134v283h-398v133h532z" />
    <glyph glyph-name="registered" unicode="&#xae;" horiz-adv-x="881" 
d="M845 338c0 -102 -37 -187 -103 -247c-72 -66 -147 -91 -282 -91h-41c-135 0 -210 25 -282 91c-65 60 -103 145 -103 247c0 103 38 187 103 246c72 66 147 92 282 92h41c135 0 211 -27 282 -92c66 -60 103 -143 103 -246zM757 338c0 77 -27 138 -74 181
c-53 49 -113 69 -223 69h-41c-110 0 -169 -20 -223 -69c-47 -43 -74 -104 -74 -181c0 -76 27 -138 74 -182c53 -50 112 -68 223 -68h41c110 0 169 19 223 68c47 43 74 105 74 182zM362 292v-104h-86v280c0 13 7 21 21 21h217c71 0 97 -49 97 -89c0 -25 -7 -47 -26 -62
c18 -11 26 -29 26 -61v-61c0 -12 0 -20 2 -28h-88c0 5 -1 13 -1 19v61c0 14 -7 24 -29 24h-133zM362 363h131c19 0 27 9 27 23c0 13 -11 23 -27 23h-125c-4 0 -6 -3 -6 -7v-39z" />
    <glyph glyph-name="macron" unicode="&#xaf;" horiz-adv-x="616" 
d="M565 891v-125h-515v125h515z" />
    <glyph glyph-name="degree" unicode="&#xb0;" horiz-adv-x="498" 
d="M446 513c0 -99 -69 -163 -186 -163h-24c-121 0 -187 66 -187 163s66 163 187 163h24c117 0 186 -64 186 -163zM143 513c0 -50 41 -71 93 -71h24c72 0 93 30 93 71s-21 70 -93 70h-24c-71 0 -93 -28 -93 -70z" />
    <glyph glyph-name="plusminus" unicode="&#xb1;" horiz-adv-x="632" 
d="M581 488v-133h-199v-198h-133v198h-200v133h200v201h133v-201h199zM582 88v-133h-532v133h532z" />
    <glyph glyph-name="twosuperior" unicode="&#xb2;" horiz-adv-x="455" 
d="M31 560v116h279c69 0 120 -42 120 -111c0 -44 -29 -84 -74 -102c-105 -41 -114 -41 -114 -46c0 -2 2 -4 4 -4c18 0 52 3 115 3h64v-112h-324c-51 0 -77 36 -77 73c0 28 16 54 48 68c187 80 214 83 214 100c0 13 -10 16 -20 16c-18 0 -32 -1 -77 -1h-158z" />
    <glyph glyph-name="threesuperior" unicode="&#xb3;" horiz-adv-x="451" 
d="M36 676h318c47 0 66 -25 66 -57c0 -22 -10 -35 -51 -69c-6 -5 -29 -18 -29 -23c0 -1 1 -2 3 -3c50 -14 87 -49 87 -106c0 -51 -36 -114 -119 -114h-276v112h234c16 0 23 11 23 21c0 8 -7 18 -23 18h-69c-36 0 -44 17 -44 35c0 10 2 19 21 32l16 11c17 12 37 20 37 26
c0 1 -1 3 -3 3c-11 0 -22 -2 -42 -2h-149v116z" />
    <glyph glyph-name="acute" unicode="&#xb4;" horiz-adv-x="409" 
d="M169 948h190l-158 -228h-151z" />
    <glyph glyph-name="paragraph" unicode="&#xb6;" horiz-adv-x="783" 
d="M219 676h476c20 0 31 -9 31 -30v-799h-134v687c0 6 -3 9 -9 9h-138v-696h-134v476h-92c-120 0 -196 63 -196 176c0 112 78 177 196 177zM158 495c0 -34 15 -49 48 -49h105v97h-105c-33 0 -48 -15 -48 -48z" />
    <glyph glyph-name="periodcentered" unicode="&#xb7;" horiz-adv-x="300" 
d="M59 433h182v-176h-182v176z" />
    <glyph glyph-name="cedilla" unicode="&#xb8;" horiz-adv-x="391" 
d="M147 -50h177l-131 -202h-143z" />
    <glyph glyph-name="onesuperior" unicode="&#xb9;" horiz-adv-x="258" 
d="M29 676h90c71 0 93 -28 93 -103v-270h-116v241c0 11 -5 16 -15 16h-52v116z" />
    <glyph glyph-name="ordmasculine" unicode="&#xba;" horiz-adv-x="604" 
d="M342 264h-79c-75 0 -130 26 -168 68c-34 36 -54 86 -54 141c0 61 26 116 67 154c37 34 88 55 155 55h79c67 0 117 -21 154 -55c42 -38 68 -93 68 -154c0 -55 -21 -105 -54 -141c-38 -42 -93 -68 -168 -68zM345 564h-85c-35 0 -57 -9 -73 -25c-18 -17 -29 -41 -29 -67
c0 -23 9 -45 24 -61c17 -19 41 -30 78 -30h85c36 0 61 11 78 30c15 16 24 38 24 61c0 26 -11 50 -29 67c-17 16 -38 25 -73 25z" />
    <glyph glyph-name="guillemotright" unicode="&#xbb;" horiz-adv-x="488" 
d="M21 676h121l99 -301c4 -14 7 -25 7 -38c0 -12 -3 -23 -7 -36l-99 -301h-121l104 319c3 9 4 13 4 19c0 5 -1 11 -4 19zM240 676h121l99 -301c4 -14 7 -25 7 -38c0 -12 -3 -23 -7 -36l-99 -301h-121l104 319c3 9 4 13 4 19c0 5 -1 11 -4 19z" />
    <glyph glyph-name="onequarter" unicode="&#xbc;" horiz-adv-x="904" 
d="M110 676h90c71 0 93 -28 93 -103v-270h-116v241c0 11 -5 16 -15 16h-52v116zM202 0h-154l627 676h154zM855 0h-118v50h-238c-58 0 -73 30 -73 62c0 17 4 36 33 57l267 194c17 12 32 17 48 17c40 0 81 -25 81 -91v-289zM737 149v81c0 5 -3 9 -7 9c-1 0 -4 -1 -5 -2
c-105 -76 -116 -77 -116 -85c0 -3 1 -5 6 -5c14 0 30 2 122 2z" />
    <glyph glyph-name="onehalf" unicode="&#xbd;" horiz-adv-x="1025" 
d="M117 676h90c71 0 93 -28 93 -103v-270h-116v241c0 11 -5 16 -15 16h-52v116zM202 0h-154l627 676h154zM577 256v116h279c69 0 120 -42 120 -111c0 -44 -29 -84 -74 -102c-105 -41 -114 -41 -114 -46c0 -2 2 -4 4 -4c18 0 52 3 115 3h64v-112h-324c-51 0 -77 36 -77 73
c0 28 16 54 48 68c187 80 214 83 214 100c0 13 -10 16 -20 16c-18 0 -32 -1 -77 -1h-158z" />
    <glyph glyph-name="threequarters" unicode="&#xbe;" horiz-adv-x="1002" 
d="M49 676h318c47 0 66 -25 66 -57c0 -22 -10 -35 -51 -69c-6 -5 -29 -18 -29 -23c0 -1 1 -2 3 -3c50 -14 87 -49 87 -106c0 -51 -36 -114 -119 -114h-276v112h234c16 0 23 11 23 21c0 8 -7 18 -23 18h-69c-36 0 -44 17 -44 35c0 10 2 19 21 32l16 11c17 12 37 20 37 26
c0 1 -1 3 -3 3c-11 0 -22 -2 -42 -2h-149v116zM294 0h-154l627 676h154zM953 0h-118v50h-238c-58 0 -73 30 -73 62c0 17 4 36 33 57l267 194c17 12 32 17 48 17c40 0 81 -25 81 -91v-289zM835 149v81c0 5 -3 9 -7 9c-1 0 -4 -1 -5 -2c-105 -76 -116 -77 -116 -85
c0 -3 1 -5 6 -5c14 0 30 2 122 2z" />
    <glyph glyph-name="questiondown" unicode="&#xbf;" horiz-adv-x="598" 
d="M571 179v-179h-357c-70 0 -115 21 -147 55c-29 31 -48 73 -48 117c0 61 25 116 102 176c66 52 88 76 95 95h181c-4 -20 -19 -50 -52 -89c-29 -35 -52 -58 -81 -81c-36 -28 -44 -37 -44 -55c0 -10 3 -19 9 -26c7 -8 18 -13 34 -13h308zM405 500h-182v176h182v-176z" />
    <glyph glyph-name="Agrave" unicode="&#xc0;" 
d="M663 566l244 -536c5 -11 8 -20 11 -30h-204c-2 9 -5 16 -8 23l-36 82h-400l-35 -81c-3 -8 -6 -16 -7 -24h-209c3 10 6 19 11 30l242 536c38 84 99 125 196 125c94 0 157 -41 195 -125zM336 254h268l-104 242c-6 15 -18 21 -31 21c-12 0 -23 -5 -30 -21zM265 948h190
l119 -228h-151z" />
    <glyph glyph-name="Aacute" unicode="&#xc1;" 
d="M663 566l244 -536c5 -11 8 -20 11 -30h-204c-2 9 -5 16 -8 23l-36 82h-400l-35 -81c-3 -8 -6 -16 -7 -24h-209c3 10 6 19 11 30l242 536c38 84 99 125 196 125c94 0 157 -41 195 -125zM336 254h268l-104 242c-6 15 -18 21 -31 21c-12 0 -23 -5 -30 -21zM484 948h190
l-158 -228h-151z" />
    <glyph glyph-name="Acircumflex" unicode="&#xc2;" 
d="M663 566l244 -536c5 -11 8 -20 11 -30h-204c-2 9 -5 16 -8 23l-36 82h-400l-35 -81c-3 -8 -6 -16 -7 -24h-209c3 10 6 19 11 30l242 536c38 84 99 125 196 125c94 0 157 -41 195 -125zM336 254h268l-104 242c-6 15 -18 21 -31 21c-12 0 -23 -5 -30 -21zM396 948h148
l174 -228h-152l-96 132l-96 -132h-153z" />
    <glyph glyph-name="Atilde" unicode="&#xc3;" 
d="M663 566l244 -536c5 -11 8 -20 11 -30h-204c-2 9 -5 16 -8 23l-36 82h-400l-35 -81c-3 -8 -6 -16 -7 -24h-209c3 10 6 19 11 30l242 536c38 84 99 125 196 125c94 0 157 -41 195 -125zM336 254h268l-104 242c-6 15 -18 21 -31 21c-12 0 -23 -5 -30 -21zM727 891v-125
h-515v125h515z" />
    <glyph glyph-name="Adieresis" unicode="&#xc4;" 
d="M663 566l244 -536c5 -11 8 -20 11 -30h-204c-2 9 -5 16 -8 23l-36 82h-400l-35 -81c-3 -8 -6 -16 -7 -24h-209c3 10 6 19 11 30l242 536c38 84 99 125 196 125c94 0 157 -41 195 -125zM336 254h268l-104 242c-6 15 -18 21 -31 21c-12 0 -23 -5 -30 -21zM702 895v-133
h-152v133h152zM387 895v-133h-151v133h151z" />
    <glyph glyph-name="Aring" unicode="&#xc5;" 
d="M663 566l244 -536c5 -11 8 -20 11 -30h-204c-2 9 -5 16 -8 23l-36 82h-400l-35 -81c-3 -8 -6 -16 -7 -24h-209c3 10 6 19 11 30l242 536c38 84 99 125 196 125c94 0 157 -41 195 -125zM336 254h268l-104 242c-6 15 -18 21 -31 21c-12 0 -23 -5 -30 -21zM512 695h-87
c-45 0 -78 16 -101 41c-21 22 -33 52 -33 85c0 37 16 71 41 94c22 20 53 33 93 33h87c41 0 71 -13 93 -33c26 -23 42 -57 42 -94c0 -33 -13 -63 -33 -85c-23 -25 -56 -41 -102 -41zM511 873h-84c-20 0 -32 -6 -42 -15s-15 -22 -15 -37c0 -13 4 -25 13 -34
c10 -12 23 -17 44 -17h84c20 0 34 5 43 17c9 9 14 21 14 34c0 15 -6 28 -16 37s-22 15 -41 15z" />
    <glyph glyph-name="AE" unicode="&#xc6;" horiz-adv-x="1312" 
d="M1276 676v-179h-505v-94h502v-130h-502v-82c0 -12 5 -18 16 -18h489v-173h-591c-63 0 -95 31 -95 94v11h-320l-35 -81c-3 -8 -5 -16 -7 -24h-209c3 10 6 19 11 30l237 521c38 85 96 125 195 125h814zM336 254h254v243h-124c-22 0 -28 -7 -35 -23z" />
    <glyph glyph-name="Ccedilla" unicode="&#xc7;" horiz-adv-x="783" 
d="M748 178v-178h-354c-121 0 -210 42 -272 110c-54 59 -87 139 -87 228c0 98 42 187 109 249c60 55 141 89 250 89h354v-179h-354c-61 0 -99 -17 -128 -44c-31 -29 -50 -71 -50 -116c0 -41 16 -79 42 -107c29 -32 72 -52 136 -52h354zM363 -50h177l-131 -202h-143z" />
    <glyph glyph-name="Egrave" unicode="&#xc8;" horiz-adv-x="795" 
d="M145 676h615v-179h-514c-11 0 -16 -6 -16 -17v-77h527v-130h-527v-82c0 -12 5 -18 16 -18h514v-173h-616c-63 0 -95 31 -95 94v491c0 61 32 91 96 91zM213 948h190l119 -228h-151z" />
    <glyph glyph-name="Eacute" unicode="&#xc9;" horiz-adv-x="795" 
d="M145 676h615v-179h-514c-11 0 -16 -6 -16 -17v-77h527v-130h-527v-82c0 -12 5 -18 16 -18h514v-173h-616c-63 0 -95 31 -95 94v491c0 61 32 91 96 91zM432 948h190l-158 -228h-151z" />
    <glyph glyph-name="Ecircumflex" unicode="&#xca;" horiz-adv-x="795" 
d="M145 676h615v-179h-514c-11 0 -16 -6 -16 -17v-77h527v-130h-527v-82c0 -12 5 -18 16 -18h514v-173h-616c-63 0 -95 31 -95 94v491c0 61 32 91 96 91zM344 948h148l174 -228h-152l-96 132l-96 -132h-153z" />
    <glyph glyph-name="Edieresis" unicode="&#xcb;" horiz-adv-x="795" 
d="M145 676h615v-179h-514c-11 0 -16 -6 -16 -17v-77h527v-130h-527v-82c0 -12 5 -18 16 -18h514v-173h-616c-63 0 -95 31 -95 94v491c0 61 32 91 96 91zM650 895v-133h-152v133h152zM335 895v-133h-151v133h151z" />
    <glyph glyph-name="Igrave" unicode="&#xcc;" horiz-adv-x="346" 
d="M113 676h182v-676h-182v676zM0 948h190l119 -228h-151z" />
    <glyph glyph-name="Iacute" unicode="&#xcd;" horiz-adv-x="347" 
d="M51 676h182v-676h-182v676zM157 948h190l-158 -228h-151z" />
    <glyph glyph-name="Icircumflex" unicode="&#xce;" horiz-adv-x="497" 
d="M157 676h182v-676h-182v676zM175 948h148l174 -228h-152l-96 132l-96 -132h-153z" />
    <glyph glyph-name="Idieresis" unicode="&#xcf;" horiz-adv-x="466" 
d="M142 676h182v-676h-182v676zM466 895v-133h-152v133h152zM151 895v-133h-151v133h151z" />
    <glyph glyph-name="Eth" unicode="&#xd0;" horiz-adv-x="855" 
d="M94 676h351c231 0 373 -144 373 -338s-138 -338 -373 -338h-351c-29 0 -44 14 -44 43v591c0 28 15 42 44 42zM595 224c26 30 42 69 42 113s-15 85 -41 114c-38 42 -85 55 -181 55h-171c-9 0 -13 -5 -13 -15v-91h263v-124h-263v-93c0 -11 4 -15 13 -15h171
c96 0 141 13 180 56z" />
    <glyph glyph-name="Ntilde" unicode="&#xd1;" 
d="M889 676v-545c0 -102 -61 -145 -127 -145c-57 0 -100 16 -132 53l-371 429c-5 6 -10 9 -16 9c-9 0 -17 -7 -17 -19v-458h-178v533c0 115 66 158 157 158c64 0 104 -17 146 -67l330 -395c5 -7 11 -8 17 -8c8 0 14 6 14 18v437h177zM727 891v-125h-515v125h515z" />
    <glyph glyph-name="Ograve" unicode="&#xd2;" horiz-adv-x="932" 
d="M536 0h-142c-121 0 -210 42 -272 110c-54 59 -87 139 -87 228c0 98 42 187 109 249c60 55 141 89 250 89h142c109 0 190 -34 250 -89c67 -62 109 -151 109 -249c0 -89 -33 -169 -87 -228c-62 -68 -151 -110 -272 -110zM536 497h-142c-61 0 -99 -17 -128 -44
c-31 -29 -50 -71 -50 -116c0 -41 16 -79 42 -107c29 -32 72 -52 136 -52h142c64 0 107 20 136 52c26 28 42 66 42 107c0 45 -19 87 -50 116c-29 27 -67 44 -128 44zM261 948h190l119 -228h-151z" />
    <glyph glyph-name="Oacute" unicode="&#xd3;" horiz-adv-x="932" 
d="M536 0h-142c-121 0 -210 42 -272 110c-54 59 -87 139 -87 228c0 98 42 187 109 249c60 55 141 89 250 89h142c109 0 190 -34 250 -89c67 -62 109 -151 109 -249c0 -89 -33 -169 -87 -228c-62 -68 -151 -110 -272 -110zM536 497h-142c-61 0 -99 -17 -128 -44
c-31 -29 -50 -71 -50 -116c0 -41 16 -79 42 -107c29 -32 72 -52 136 -52h142c64 0 107 20 136 52c26 28 42 66 42 107c0 45 -19 87 -50 116c-29 27 -67 44 -128 44zM480 948h190l-158 -228h-151z" />
    <glyph glyph-name="Ocircumflex" unicode="&#xd4;" horiz-adv-x="932" 
d="M536 0h-142c-121 0 -210 42 -272 110c-54 59 -87 139 -87 228c0 98 42 187 109 249c60 55 141 89 250 89h142c109 0 190 -34 250 -89c67 -62 109 -151 109 -249c0 -89 -33 -169 -87 -228c-62 -68 -151 -110 -272 -110zM536 497h-142c-61 0 -99 -17 -128 -44
c-31 -29 -50 -71 -50 -116c0 -41 16 -79 42 -107c29 -32 72 -52 136 -52h142c64 0 107 20 136 52c26 28 42 66 42 107c0 45 -19 87 -50 116c-29 27 -67 44 -128 44zM392 948h148l174 -228h-152l-96 132l-96 -132h-153z" />
    <glyph glyph-name="Otilde" unicode="&#xd5;" horiz-adv-x="932" 
d="M536 0h-142c-121 0 -210 42 -272 110c-54 59 -87 139 -87 228c0 98 42 187 109 249c60 55 141 89 250 89h142c109 0 190 -34 250 -89c67 -62 109 -151 109 -249c0 -89 -33 -169 -87 -228c-62 -68 -151 -110 -272 -110zM536 497h-142c-61 0 -99 -17 -128 -44
c-31 -29 -50 -71 -50 -116c0 -41 16 -79 42 -107c29 -32 72 -52 136 -52h142c64 0 107 20 136 52c26 28 42 66 42 107c0 45 -19 87 -50 116c-29 27 -67 44 -128 44zM723 891v-125h-515v125h515z" />
    <glyph glyph-name="Odieresis" unicode="&#xd6;" horiz-adv-x="932" 
d="M536 0h-142c-121 0 -210 42 -272 110c-54 59 -87 139 -87 228c0 98 42 187 109 249c60 55 141 89 250 89h142c109 0 190 -34 250 -89c67 -62 109 -151 109 -249c0 -89 -33 -169 -87 -228c-62 -68 -151 -110 -272 -110zM536 497h-142c-61 0 -99 -17 -128 -44
c-31 -29 -50 -71 -50 -116c0 -41 16 -79 42 -107c29 -32 72 -52 136 -52h142c64 0 107 20 136 52c26 28 42 66 42 107c0 45 -19 87 -50 116c-29 27 -67 44 -128 44zM699 895v-133h-152v133h152zM384 895v-133h-151v133h151z" />
    <glyph glyph-name="multiply" unicode="&#xd7;" horiz-adv-x="632" 
d="M552 201l-94 -95l-140 141l-140 -141l-95 95l141 141l-142 140l95 95l141 -142l141 142l94 -95l-141 -140z" />
    <glyph glyph-name="Oslash" unicode="&#xd8;" horiz-adv-x="932" 
d="M536 0h-142c-51 0 -97 7 -137 21c-24 -27 -27 -31 -29 -35h-139c2 7 7 13 73 87c-79 58 -127 161 -127 265c0 98 42 187 109 249c60 55 141 89 250 89h142c52 0 98 -8 138 -22c23 26 27 32 29 37h138c-2 -7 -6 -14 -73 -89c85 -77 127 -166 127 -264
c0 -89 -33 -169 -87 -228c-62 -68 -151 -110 -272 -110zM542 504h-148c-61 0 -99 -18 -128 -46c-31 -30 -50 -74 -50 -121c0 -50 23 -97 62 -132zM714 337c0 47 -21 105 -63 132l-263 -298h148c64 0 107 21 136 54c26 30 42 69 42 112z" />
    <glyph glyph-name="Ugrave" unicode="&#xd9;" horiz-adv-x="869" 
d="M586 0h-303c-170 0 -237 65 -237 216v460h182v-440c0 -42 20 -63 65 -63h281c45 0 67 20 67 63v440h182v-460c0 -151 -67 -216 -237 -216zM230 948h190l119 -228h-151z" />
    <glyph glyph-name="Uacute" unicode="&#xda;" horiz-adv-x="869" 
d="M586 0h-303c-170 0 -237 65 -237 216v460h182v-440c0 -42 20 -63 65 -63h281c45 0 67 20 67 63v440h182v-460c0 -151 -67 -216 -237 -216zM449 948h190l-158 -228h-151z" />
    <glyph glyph-name="Ucircumflex" unicode="&#xdb;" horiz-adv-x="869" 
d="M586 0h-303c-170 0 -237 65 -237 216v460h182v-440c0 -42 20 -63 65 -63h281c45 0 67 20 67 63v440h182v-460c0 -151 -67 -216 -237 -216zM361 948h148l174 -228h-152l-96 132l-96 -132h-153z" />
    <glyph glyph-name="Udieresis" unicode="&#xdc;" horiz-adv-x="869" 
d="M586 0h-303c-170 0 -237 65 -237 216v460h182v-440c0 -42 20 -63 65 -63h281c45 0 67 20 67 63v440h182v-460c0 -151 -67 -216 -237 -216zM667 895v-133h-152v133h152zM352 895v-133h-151v133h151z" />
    <glyph glyph-name="Yacute" unicode="&#xdd;" horiz-adv-x="854" 
d="M330 315l-307 338c-10 11 -14 16 -17 23h223c2 -5 7 -14 16 -23l170 -185c4 -4 8 -7 14 -7s10 3 14 7l169 185c9 9 15 18 17 23h219c-4 -7 -8 -12 -18 -23l-317 -350v-303h-183v315zM441 948h190l-158 -228h-151z" />
    <glyph glyph-name="Thorn" unicode="&#xde;" horiz-adv-x="838" 
d="M49 0v676h182v-94h314c170 0 274 -101 274 -241c0 -141 -103 -242 -276 -242h-312v-99h-182zM639 341c0 43 -21 74 -86 74h-322v-149h322c65 0 86 32 86 75z" />
    <glyph glyph-name="germandbls" unicode="&#xdf;" horiz-adv-x="1624" 
d="M757 676v-179h-486c-22 0 -34 -5 -42 -13c-9 -9 -14 -21 -14 -35c0 -15 7 -28 17 -36c8 -7 18 -10 39 -10h297c76 0 127 -24 163 -61s58 -87 58 -140c0 -49 -19 -96 -50 -132c-37 -43 -91 -70 -171 -70h-524v173h492c28 0 42 6 51 17c7 8 11 19 11 31c0 14 -5 27 -14 36
c-9 10 -22 15 -48 15h-275c-90 0 -142 24 -178 61s-57 86 -57 141c0 54 22 104 58 141s87 61 177 61h496zM1569 676v-179h-486c-22 0 -34 -5 -42 -13c-9 -9 -14 -21 -14 -35c0 -15 7 -28 17 -36c8 -7 18 -10 39 -10h297c76 0 127 -24 163 -61s58 -87 58 -140
c0 -49 -19 -96 -50 -132c-37 -43 -91 -70 -171 -70h-524v173h492c28 0 42 6 51 17c7 8 11 19 11 31c0 14 -5 27 -14 36c-9 10 -22 15 -48 15h-275c-90 0 -142 24 -178 61s-57 86 -57 141c0 54 22 104 58 141s87 61 177 61h496z" />
    <glyph glyph-name="agrave" unicode="&#xe0;" 
d="M663 566l244 -536c5 -11 8 -20 11 -30h-204c-2 9 -5 16 -8 23l-36 82h-400l-35 -81c-3 -8 -6 -16 -7 -24h-209c3 10 6 19 11 30l242 536c38 84 99 125 196 125c94 0 157 -41 195 -125zM336 254h268l-104 242c-6 15 -18 21 -31 21c-12 0 -23 -5 -30 -21zM265 948h190
l119 -228h-151z" />
    <glyph glyph-name="aacute" unicode="&#xe1;" 
d="M663 566l244 -536c5 -11 8 -20 11 -30h-204c-2 9 -5 16 -8 23l-36 82h-400l-35 -81c-3 -8 -6 -16 -7 -24h-209c3 10 6 19 11 30l242 536c38 84 99 125 196 125c94 0 157 -41 195 -125zM336 254h268l-104 242c-6 15 -18 21 -31 21c-12 0 -23 -5 -30 -21zM484 948h190
l-158 -228h-151z" />
    <glyph glyph-name="acircumflex" unicode="&#xe2;" 
d="M663 566l244 -536c5 -11 8 -20 11 -30h-204c-2 9 -5 16 -8 23l-36 82h-400l-35 -81c-3 -8 -6 -16 -7 -24h-209c3 10 6 19 11 30l242 536c38 84 99 125 196 125c94 0 157 -41 195 -125zM336 254h268l-104 242c-6 15 -18 21 -31 21c-12 0 -23 -5 -30 -21zM396 948h148
l174 -228h-152l-96 132l-96 -132h-153z" />
    <glyph glyph-name="atilde" unicode="&#xe3;" 
d="M663 566l244 -536c5 -11 8 -20 11 -30h-204c-2 9 -5 16 -8 23l-36 82h-400l-35 -81c-3 -8 -6 -16 -7 -24h-209c3 10 6 19 11 30l242 536c38 84 99 125 196 125c94 0 157 -41 195 -125zM336 254h268l-104 242c-6 15 -18 21 -31 21c-12 0 -23 -5 -30 -21zM727 891v-125
h-515v125h515z" />
    <glyph glyph-name="adieresis" unicode="&#xe4;" 
d="M663 566l244 -536c5 -11 8 -20 11 -30h-204c-2 9 -5 16 -8 23l-36 82h-400l-35 -81c-3 -8 -6 -16 -7 -24h-209c3 10 6 19 11 30l242 536c38 84 99 125 196 125c94 0 157 -41 195 -125zM336 254h268l-104 242c-6 15 -18 21 -31 21c-12 0 -23 -5 -30 -21zM702 895v-133
h-152v133h152zM387 895v-133h-151v133h151z" />
    <glyph glyph-name="aring" unicode="&#xe5;" 
d="M663 566l244 -536c5 -11 8 -20 11 -30h-204c-2 9 -5 16 -8 23l-36 82h-400l-35 -81c-3 -8 -6 -16 -7 -24h-209c3 10 6 19 11 30l242 536c38 84 99 125 196 125c94 0 157 -41 195 -125zM336 254h268l-104 242c-6 15 -18 21 -31 21c-12 0 -23 -5 -30 -21zM512 695h-87
c-45 0 -78 16 -101 41c-21 22 -33 52 -33 85c0 37 16 71 41 94c22 20 53 33 93 33h87c41 0 71 -13 93 -33c26 -23 42 -57 42 -94c0 -33 -13 -63 -33 -85c-23 -25 -56 -41 -102 -41zM511 873h-84c-20 0 -32 -6 -42 -15s-15 -22 -15 -37c0 -13 4 -25 13 -34
c10 -12 23 -17 44 -17h84c20 0 34 5 43 17c9 9 14 21 14 34c0 15 -6 28 -16 37s-22 15 -41 15z" />
    <glyph glyph-name="ae" unicode="&#xe6;" horiz-adv-x="1312" 
d="M1276 676v-179h-505v-94h502v-130h-502v-82c0 -12 5 -18 16 -18h489v-173h-591c-63 0 -95 31 -95 94v11h-320l-35 -81c-3 -8 -5 -16 -7 -24h-209c3 10 6 19 11 30l237 521c38 85 96 125 195 125h814zM336 254h254v243h-124c-22 0 -28 -7 -35 -23z" />
    <glyph glyph-name="ccedilla" unicode="&#xe7;" horiz-adv-x="783" 
d="M748 178v-178h-354c-121 0 -210 42 -272 110c-54 59 -87 139 -87 228c0 98 42 187 109 249c60 55 141 89 250 89h354v-179h-354c-61 0 -99 -17 -128 -44c-31 -29 -50 -71 -50 -116c0 -41 16 -79 42 -107c29 -32 72 -52 136 -52h354zM363 -50h177l-131 -202h-143z" />
    <glyph glyph-name="egrave" unicode="&#xe8;" horiz-adv-x="795" 
d="M145 676h615v-179h-514c-11 0 -16 -6 -16 -17v-77h527v-130h-527v-82c0 -12 5 -18 16 -18h514v-173h-616c-63 0 -95 31 -95 94v491c0 61 32 91 96 91zM213 948h190l119 -228h-151z" />
    <glyph glyph-name="eacute" unicode="&#xe9;" horiz-adv-x="795" 
d="M145 676h615v-179h-514c-11 0 -16 -6 -16 -17v-77h527v-130h-527v-82c0 -12 5 -18 16 -18h514v-173h-616c-63 0 -95 31 -95 94v491c0 61 32 91 96 91zM432 948h190l-158 -228h-151z" />
    <glyph glyph-name="ecircumflex" unicode="&#xea;" horiz-adv-x="795" 
d="M145 676h615v-179h-514c-11 0 -16 -6 -16 -17v-77h527v-130h-527v-82c0 -12 5 -18 16 -18h514v-173h-616c-63 0 -95 31 -95 94v491c0 61 32 91 96 91zM344 948h148l174 -228h-152l-96 132l-96 -132h-153z" />
    <glyph glyph-name="edieresis" unicode="&#xeb;" horiz-adv-x="795" 
d="M145 676h615v-179h-514c-11 0 -16 -6 -16 -17v-77h527v-130h-527v-82c0 -12 5 -18 16 -18h514v-173h-616c-63 0 -95 31 -95 94v491c0 61 32 91 96 91zM650 895v-133h-152v133h152zM335 895v-133h-151v133h151z" />
    <glyph glyph-name="igrave" unicode="&#xec;" horiz-adv-x="346" 
d="M113 676h182v-676h-182v676zM0 948h190l119 -228h-151z" />
    <glyph glyph-name="iacute" unicode="&#xed;" horiz-adv-x="347" 
d="M51 676h182v-676h-182v676zM157 948h190l-158 -228h-151z" />
    <glyph glyph-name="icircumflex" unicode="&#xee;" horiz-adv-x="497" 
d="M157 676h182v-676h-182v676zM175 948h148l174 -228h-152l-96 132l-96 -132h-153z" />
    <glyph glyph-name="idieresis" unicode="&#xef;" horiz-adv-x="466" 
d="M142 676h182v-676h-182v676zM466 895v-133h-152v133h152zM151 895v-133h-151v133h151z" />
    <glyph glyph-name="eth" unicode="&#xf0;" horiz-adv-x="855" 
d="M94 676h351c231 0 373 -144 373 -338s-138 -338 -373 -338h-351c-29 0 -44 14 -44 43v591c0 28 15 42 44 42zM595 224c26 30 42 69 42 113s-15 85 -41 114c-38 42 -85 55 -181 55h-171c-9 0 -13 -5 -13 -15v-91h263v-124h-263v-93c0 -11 4 -15 13 -15h171
c96 0 141 13 180 56z" />
    <glyph glyph-name="ntilde" unicode="&#xf1;" 
d="M889 676v-545c0 -102 -61 -145 -127 -145c-57 0 -100 16 -132 53l-371 429c-5 6 -10 9 -16 9c-9 0 -17 -7 -17 -19v-458h-178v533c0 115 66 158 157 158c64 0 104 -17 146 -67l330 -395c5 -7 11 -8 17 -8c8 0 14 6 14 18v437h177zM727 891v-125h-515v125h515z" />
    <glyph glyph-name="ograve" unicode="&#xf2;" horiz-adv-x="932" 
d="M536 0h-142c-121 0 -210 42 -272 110c-54 59 -87 139 -87 228c0 98 42 187 109 249c60 55 141 89 250 89h142c109 0 190 -34 250 -89c67 -62 109 -151 109 -249c0 -89 -33 -169 -87 -228c-62 -68 -151 -110 -272 -110zM536 497h-142c-61 0 -99 -17 -128 -44
c-31 -29 -50 -71 -50 -116c0 -41 16 -79 42 -107c29 -32 72 -52 136 -52h142c64 0 107 20 136 52c26 28 42 66 42 107c0 45 -19 87 -50 116c-29 27 -67 44 -128 44zM261 948h190l119 -228h-151z" />
    <glyph glyph-name="oacute" unicode="&#xf3;" horiz-adv-x="932" 
d="M536 0h-142c-121 0 -210 42 -272 110c-54 59 -87 139 -87 228c0 98 42 187 109 249c60 55 141 89 250 89h142c109 0 190 -34 250 -89c67 -62 109 -151 109 -249c0 -89 -33 -169 -87 -228c-62 -68 -151 -110 -272 -110zM536 497h-142c-61 0 -99 -17 -128 -44
c-31 -29 -50 -71 -50 -116c0 -41 16 -79 42 -107c29 -32 72 -52 136 -52h142c64 0 107 20 136 52c26 28 42 66 42 107c0 45 -19 87 -50 116c-29 27 -67 44 -128 44zM480 948h190l-158 -228h-151z" />
    <glyph glyph-name="ocircumflex" unicode="&#xf4;" horiz-adv-x="932" 
d="M536 0h-142c-121 0 -210 42 -272 110c-54 59 -87 139 -87 228c0 98 42 187 109 249c60 55 141 89 250 89h142c109 0 190 -34 250 -89c67 -62 109 -151 109 -249c0 -89 -33 -169 -87 -228c-62 -68 -151 -110 -272 -110zM536 497h-142c-61 0 -99 -17 -128 -44
c-31 -29 -50 -71 -50 -116c0 -41 16 -79 42 -107c29 -32 72 -52 136 -52h142c64 0 107 20 136 52c26 28 42 66 42 107c0 45 -19 87 -50 116c-29 27 -67 44 -128 44zM392 948h148l174 -228h-152l-96 132l-96 -132h-153z" />
    <glyph glyph-name="otilde" unicode="&#xf5;" horiz-adv-x="932" 
d="M536 0h-142c-121 0 -210 42 -272 110c-54 59 -87 139 -87 228c0 98 42 187 109 249c60 55 141 89 250 89h142c109 0 190 -34 250 -89c67 -62 109 -151 109 -249c0 -89 -33 -169 -87 -228c-62 -68 -151 -110 -272 -110zM536 497h-142c-61 0 -99 -17 -128 -44
c-31 -29 -50 -71 -50 -116c0 -41 16 -79 42 -107c29 -32 72 -52 136 -52h142c64 0 107 20 136 52c26 28 42 66 42 107c0 45 -19 87 -50 116c-29 27 -67 44 -128 44zM723 891v-125h-515v125h515z" />
    <glyph glyph-name="odieresis" unicode="&#xf6;" horiz-adv-x="932" 
d="M536 0h-142c-121 0 -210 42 -272 110c-54 59 -87 139 -87 228c0 98 42 187 109 249c60 55 141 89 250 89h142c109 0 190 -34 250 -89c67 -62 109 -151 109 -249c0 -89 -33 -169 -87 -228c-62 -68 -151 -110 -272 -110zM536 497h-142c-61 0 -99 -17 -128 -44
c-31 -29 -50 -71 -50 -116c0 -41 16 -79 42 -107c29 -32 72 -52 136 -52h142c64 0 107 20 136 52c26 28 42 66 42 107c0 45 -19 87 -50 116c-29 27 -67 44 -128 44zM699 895v-133h-152v133h152zM384 895v-133h-151v133h151z" />
    <glyph glyph-name="divide" unicode="&#xf7;" horiz-adv-x="632" 
d="M581 408v-133h-532v133h532zM225 676h182v-176h-182v176zM225 176h182v-176h-182v176z" />
    <glyph glyph-name="oslash" unicode="&#xf8;" horiz-adv-x="932" 
d="M536 0h-142c-51 0 -97 7 -137 21c-24 -27 -27 -31 -29 -35h-139c2 7 7 13 73 87c-79 58 -127 161 -127 265c0 98 42 187 109 249c60 55 141 89 250 89h142c52 0 98 -8 138 -22c23 26 27 32 29 37h138c-2 -7 -6 -14 -73 -89c85 -77 127 -166 127 -264
c0 -89 -33 -169 -87 -228c-62 -68 -151 -110 -272 -110zM542 504h-148c-61 0 -99 -18 -128 -46c-31 -30 -50 -74 -50 -121c0 -50 23 -97 62 -132zM714 337c0 47 -21 105 -63 132l-263 -298h148c64 0 107 21 136 54c26 30 42 69 42 112z" />
    <glyph glyph-name="ugrave" unicode="&#xf9;" horiz-adv-x="869" 
d="M586 0h-303c-170 0 -237 65 -237 216v460h182v-440c0 -42 20 -63 65 -63h281c45 0 67 20 67 63v440h182v-460c0 -151 -67 -216 -237 -216zM230 948h190l119 -228h-151z" />
    <glyph glyph-name="uacute" unicode="&#xfa;" horiz-adv-x="869" 
d="M586 0h-303c-170 0 -237 65 -237 216v460h182v-440c0 -42 20 -63 65 -63h281c45 0 67 20 67 63v440h182v-460c0 -151 -67 -216 -237 -216zM449 948h190l-158 -228h-151z" />
    <glyph glyph-name="ucircumflex" unicode="&#xfb;" horiz-adv-x="869" 
d="M586 0h-303c-170 0 -237 65 -237 216v460h182v-440c0 -42 20 -63 65 -63h281c45 0 67 20 67 63v440h182v-460c0 -151 -67 -216 -237 -216zM361 948h148l174 -228h-152l-96 132l-96 -132h-153z" />
    <glyph glyph-name="udieresis" unicode="&#xfc;" horiz-adv-x="869" 
d="M586 0h-303c-170 0 -237 65 -237 216v460h182v-440c0 -42 20 -63 65 -63h281c45 0 67 20 67 63v440h182v-460c0 -151 -67 -216 -237 -216zM667 895v-133h-152v133h152zM352 895v-133h-151v133h151z" />
    <glyph glyph-name="yacute" unicode="&#xfd;" horiz-adv-x="854" 
d="M330 315l-307 338c-10 11 -14 16 -17 23h223c2 -5 7 -14 16 -23l170 -185c4 -4 8 -7 14 -7s10 3 14 7l169 185c9 9 15 18 17 23h219c-4 -7 -8 -12 -18 -23l-317 -350v-303h-183v315zM441 948h190l-158 -228h-151z" />
    <glyph glyph-name="thorn" unicode="&#xfe;" horiz-adv-x="838" 
d="M49 0v676h182v-94h314c170 0 274 -101 274 -241c0 -141 -103 -242 -276 -242h-312v-99h-182zM639 341c0 43 -21 74 -86 74h-322v-149h322c65 0 86 32 86 75z" />
    <glyph glyph-name="ydieresis" unicode="&#xff;" horiz-adv-x="854" 
d="M330 315l-307 338c-10 11 -14 16 -17 23h223c2 -5 7 -14 16 -23l170 -185c4 -4 8 -7 14 -7s10 3 14 7l169 185c9 9 15 18 17 23h219c-4 -7 -8 -12 -18 -23l-317 -350v-303h-183v315zM660 895v-133h-152v133h152zM345 895v-133h-151v133h151z" />
    <glyph glyph-name="Amacron" unicode="&#x100;" 
d="M663 566l244 -536c5 -11 8 -20 11 -30h-204c-2 9 -5 16 -8 23l-36 82h-400l-35 -81c-3 -8 -6 -16 -7 -24h-209c3 10 6 19 11 30l242 536c38 84 99 125 196 125c94 0 157 -41 195 -125zM336 254h268l-104 242c-6 15 -18 21 -31 21c-12 0 -23 -5 -30 -21zM727 891v-125
h-515v125h515z" />
    <glyph glyph-name="amacron" unicode="&#x101;" 
d="M663 566l244 -536c5 -11 8 -20 11 -30h-204c-2 9 -5 16 -8 23l-36 82h-400l-35 -81c-3 -8 -6 -16 -7 -24h-209c3 10 6 19 11 30l242 536c38 84 99 125 196 125c94 0 157 -41 195 -125zM336 254h268l-104 242c-6 15 -18 21 -31 21c-12 0 -23 -5 -30 -21zM727 891v-125
h-515v125h515z" />
    <glyph glyph-name="Abreve" unicode="&#x102;" 
d="M663 566l244 -536c5 -11 8 -20 11 -30h-204c-2 9 -5 16 -8 23l-36 82h-400l-35 -81c-3 -8 -6 -16 -7 -24h-209c3 10 6 19 11 30l242 536c38 84 99 125 196 125c94 0 157 -41 195 -125zM336 254h268l-104 242c-6 15 -18 21 -31 21c-12 0 -23 -5 -30 -21zM498 720h-59
c-139 0 -193 91 -195 228h123c0 -94 35 -134 91 -134h22c54 0 92 40 92 134h122c0 -129 -52 -228 -196 -228z" />
    <glyph glyph-name="abreve" unicode="&#x103;" 
d="M663 566l244 -536c5 -11 8 -20 11 -30h-204c-2 9 -5 16 -8 23l-36 82h-400l-35 -81c-3 -8 -6 -16 -7 -24h-209c3 10 6 19 11 30l242 536c38 84 99 125 196 125c94 0 157 -41 195 -125zM336 254h268l-104 242c-6 15 -18 21 -31 21c-12 0 -23 -5 -30 -21zM498 720h-59
c-139 0 -193 91 -195 228h123c0 -94 35 -134 91 -134h22c54 0 92 40 92 134h122c0 -129 -52 -228 -196 -228z" />
    <glyph glyph-name="Aogonek" unicode="&#x104;" 
d="M663 566l244 -536c5 -11 8 -20 11 -30h-204c-2 9 -5 16 -8 23l-36 82h-400l-35 -81c-3 -8 -6 -16 -7 -24h-209c3 10 6 19 11 30l242 536c38 84 99 125 196 125c94 0 157 -41 195 -125zM336 254h268l-104 242c-6 15 -18 21 -31 21c-12 0 -23 -5 -30 -21zM939 -252h-138
c-115 0 -145 56 -156 134l142 104v-47c0 -23 9 -34 39 -34h113v-157z" />
    <glyph glyph-name="aogonek" unicode="&#x105;" 
d="M663 566l244 -536c5 -11 8 -20 11 -30h-204c-2 9 -5 16 -8 23l-36 82h-400l-35 -81c-3 -8 -6 -16 -7 -24h-209c3 10 6 19 11 30l242 536c38 84 99 125 196 125c94 0 157 -41 195 -125zM336 254h268l-104 242c-6 15 -18 21 -31 21c-12 0 -23 -5 -30 -21zM939 -252h-138
c-115 0 -145 56 -156 134l142 104v-47c0 -23 9 -34 39 -34h113v-157z" />
    <glyph glyph-name="Cacute" unicode="&#x106;" horiz-adv-x="783" 
d="M748 178v-178h-354c-121 0 -210 42 -272 110c-54 59 -87 139 -87 228c0 98 42 187 109 249c60 55 141 89 250 89h354v-179h-354c-61 0 -99 -17 -128 -44c-31 -29 -50 -71 -50 -116c0 -41 16 -79 42 -107c29 -32 72 -52 136 -52h354zM486 948h190l-158 -228h-151z" />
    <glyph glyph-name="cacute" unicode="&#x107;" horiz-adv-x="783" 
d="M748 178v-178h-354c-121 0 -210 42 -272 110c-54 59 -87 139 -87 228c0 98 42 187 109 249c60 55 141 89 250 89h354v-179h-354c-61 0 -99 -17 -128 -44c-31 -29 -50 -71 -50 -116c0 -41 16 -79 42 -107c29 -32 72 -52 136 -52h354zM486 948h190l-158 -228h-151z" />
    <glyph glyph-name="Cdotaccent" unicode="&#x10a;" horiz-adv-x="783" 
d="M748 178v-178h-354c-121 0 -210 42 -272 110c-54 59 -87 139 -87 228c0 98 42 187 109 249c60 55 141 89 250 89h354v-179h-354c-61 0 -99 -17 -128 -44c-31 -29 -50 -71 -50 -116c0 -41 16 -79 42 -107c29 -32 72 -52 136 -52h354zM547 895v-133h-151v133h151z" />
    <glyph glyph-name="cdotaccent" unicode="&#x10b;" horiz-adv-x="783" 
d="M748 178v-178h-354c-121 0 -210 42 -272 110c-54 59 -87 139 -87 228c0 98 42 187 109 249c60 55 141 89 250 89h354v-179h-354c-61 0 -99 -17 -128 -44c-31 -29 -50 -71 -50 -116c0 -41 16 -79 42 -107c29 -32 72 -52 136 -52h354zM547 895v-133h-151v133h151z" />
    <glyph glyph-name="Ccaron" unicode="&#x10c;" horiz-adv-x="783" 
d="M748 178v-178h-354c-121 0 -210 42 -272 110c-54 59 -87 139 -87 228c0 98 42 187 109 249c60 55 141 89 250 89h354v-179h-354c-61 0 -99 -17 -128 -44c-31 -29 -50 -71 -50 -116c0 -41 16 -79 42 -107c29 -32 72 -52 136 -52h354zM546 720h-148l-175 228h153l96 -134
l96 134h152z" />
    <glyph glyph-name="ccaron" unicode="&#x10d;" horiz-adv-x="783" 
d="M748 178v-178h-354c-121 0 -210 42 -272 110c-54 59 -87 139 -87 228c0 98 42 187 109 249c60 55 141 89 250 89h354v-179h-354c-61 0 -99 -17 -128 -44c-31 -29 -50 -71 -50 -116c0 -41 16 -79 42 -107c29 -32 72 -52 136 -52h354zM546 720h-148l-175 228h153l96 -134
l96 134h152z" />
    <glyph glyph-name="Dcaron" unicode="&#x10e;" horiz-adv-x="855" 
d="M94 676h365c109 0 190 -34 250 -89c67 -62 109 -151 109 -249c0 -89 -33 -169 -87 -228c-62 -68 -151 -110 -272 -110h-365c-29 0 -44 14 -44 43v591c0 28 15 42 44 42zM459 497h-215c-9 0 -13 -4 -13 -14v-291c0 -10 4 -14 13 -14h215c64 0 107 20 136 52
c26 28 42 66 42 107c0 45 -19 87 -50 116c-29 27 -67 44 -128 44zM467 720h-148l-175 228h153l96 -134l96 134h152z" />
    <glyph glyph-name="dcaron" unicode="&#x10f;" horiz-adv-x="855" 
d="M94 676h365c109 0 190 -34 250 -89c67 -62 109 -151 109 -249c0 -89 -33 -169 -87 -228c-62 -68 -151 -110 -272 -110h-365c-29 0 -44 14 -44 43v591c0 28 15 42 44 42zM459 497h-215c-9 0 -13 -4 -13 -14v-291c0 -10 4 -14 13 -14h215c64 0 107 20 136 52
c26 28 42 66 42 107c0 45 -19 87 -50 116c-29 27 -67 44 -128 44zM467 720h-148l-175 228h153l96 -134l96 134h152z" />
    <glyph glyph-name="Dcroat" unicode="&#x110;" horiz-adv-x="855" 
d="M94 676h351c231 0 373 -144 373 -338s-138 -338 -373 -338h-351c-29 0 -44 14 -44 43v591c0 28 15 42 44 42zM595 224c26 30 42 69 42 113s-15 85 -41 114c-38 42 -85 55 -181 55h-171c-9 0 -13 -5 -13 -15v-91h263v-124h-263v-93c0 -11 4 -15 13 -15h171
c96 0 141 13 180 56z" />
    <glyph glyph-name="dcroat" unicode="&#x111;" horiz-adv-x="855" 
d="M94 676h351c231 0 373 -144 373 -338s-138 -338 -373 -338h-351c-29 0 -44 14 -44 43v591c0 28 15 42 44 42zM595 224c26 30 42 69 42 113s-15 85 -41 114c-38 42 -85 55 -181 55h-171c-9 0 -13 -5 -13 -15v-91h263v-124h-263v-93c0 -11 4 -15 13 -15h171
c96 0 141 13 180 56z" />
    <glyph glyph-name="Emacron" unicode="&#x112;" horiz-adv-x="795" 
d="M145 676h615v-179h-514c-11 0 -16 -6 -16 -17v-77h527v-130h-527v-82c0 -12 5 -18 16 -18h514v-173h-616c-63 0 -95 31 -95 94v491c0 61 32 91 96 91zM675 891v-125h-515v125h515z" />
    <glyph glyph-name="emacron" unicode="&#x113;" horiz-adv-x="795" 
d="M145 676h615v-179h-514c-11 0 -16 -6 -16 -17v-77h527v-130h-527v-82c0 -12 5 -18 16 -18h514v-173h-616c-63 0 -95 31 -95 94v491c0 61 32 91 96 91zM675 891v-125h-515v125h515z" />
    <glyph glyph-name="Edotaccent" unicode="&#x116;" horiz-adv-x="795" 
d="M145 676h615v-179h-514c-11 0 -16 -6 -16 -17v-77h527v-130h-527v-82c0 -12 5 -18 16 -18h514v-173h-616c-63 0 -95 31 -95 94v491c0 61 32 91 96 91zM493 895v-133h-151v133h151z" />
    <glyph glyph-name="edotaccent" unicode="&#x117;" horiz-adv-x="795" 
d="M145 676h615v-179h-514c-11 0 -16 -6 -16 -17v-77h527v-130h-527v-82c0 -12 5 -18 16 -18h514v-173h-616c-63 0 -95 31 -95 94v491c0 61 32 91 96 91zM493 895v-133h-151v133h151z" />
    <glyph glyph-name="Eogonek" unicode="&#x118;" horiz-adv-x="795" 
d="M145 676h615v-179h-514c-11 0 -16 -6 -16 -17v-77h527v-130h-527v-82c0 -12 5 -18 16 -18h514v-173h-616c-63 0 -95 31 -95 94v491c0 61 32 91 96 91zM796 -252h-138c-115 0 -145 56 -156 134l142 104v-47c0 -23 9 -34 39 -34h113v-157z" />
    <glyph glyph-name="eogonek" unicode="&#x119;" horiz-adv-x="795" 
d="M145 676h615v-179h-514c-11 0 -16 -6 -16 -17v-77h527v-130h-527v-82c0 -12 5 -18 16 -18h514v-173h-616c-63 0 -95 31 -95 94v491c0 61 32 91 96 91zM796 -252h-138c-115 0 -145 56 -156 134l142 104v-47c0 -23 9 -34 39 -34h113v-157z" />
    <glyph glyph-name="Ecaron" unicode="&#x11a;" horiz-adv-x="795" 
d="M145 676h615v-179h-514c-11 0 -16 -6 -16 -17v-77h527v-130h-527v-82c0 -12 5 -18 16 -18h514v-173h-616c-63 0 -95 31 -95 94v491c0 61 32 91 96 91zM492 720h-148l-175 228h153l96 -134l96 134h152z" />
    <glyph glyph-name="ecaron" unicode="&#x11b;" horiz-adv-x="795" 
d="M145 676h615v-179h-514c-11 0 -16 -6 -16 -17v-77h527v-130h-527v-82c0 -12 5 -18 16 -18h514v-173h-616c-63 0 -95 31 -95 94v491c0 61 32 91 96 91zM492 720h-148l-175 228h153l96 -134l96 134h152z" />
    <glyph glyph-name="Gbreve" unicode="&#x11e;" horiz-adv-x="807" 
d="M717 0h-323c-121 0 -210 42 -272 110c-54 59 -87 139 -87 228c0 98 42 187 109 249c60 55 141 89 250 89h365v-179h-365c-61 0 -99 -17 -128 -44c-31 -29 -50 -71 -50 -116c0 -41 16 -79 42 -107c29 -32 72 -55 136 -55h173c9 0 13 4 13 14v181h180v-327
c0 -29 -14 -43 -43 -43zM492 720h-59c-139 0 -193 91 -195 228h123c0 -94 35 -134 91 -134h22c54 0 92 40 92 134h122c0 -129 -52 -228 -196 -228z" />
    <glyph glyph-name="gbreve" unicode="&#x11f;" horiz-adv-x="807" 
d="M717 0h-323c-121 0 -210 42 -272 110c-54 59 -87 139 -87 228c0 98 42 187 109 249c60 55 141 89 250 89h365v-179h-365c-61 0 -99 -17 -128 -44c-31 -29 -50 -71 -50 -116c0 -41 16 -79 42 -107c29 -32 72 -55 136 -55h173c9 0 13 4 13 14v181h180v-327
c0 -29 -14 -43 -43 -43zM492 720h-59c-139 0 -193 91 -195 228h123c0 -94 35 -134 91 -134h22c54 0 92 40 92 134h122c0 -129 -52 -228 -196 -228z" />
    <glyph glyph-name="Gdotaccent" unicode="&#x120;" horiz-adv-x="807" 
d="M717 0h-323c-121 0 -210 42 -272 110c-54 59 -87 139 -87 228c0 98 42 187 109 249c60 55 141 89 250 89h365v-179h-365c-61 0 -99 -17 -128 -44c-31 -29 -50 -71 -50 -116c0 -41 16 -79 42 -107c29 -32 72 -55 136 -55h173c9 0 13 4 13 14v181h180v-327
c0 -29 -14 -43 -43 -43zM539 895v-133h-151v133h151z" />
    <glyph glyph-name="gdotaccent" unicode="&#x121;" horiz-adv-x="807" 
d="M717 0h-323c-121 0 -210 42 -272 110c-54 59 -87 139 -87 228c0 98 42 187 109 249c60 55 141 89 250 89h365v-179h-365c-61 0 -99 -17 -128 -44c-31 -29 -50 -71 -50 -116c0 -41 16 -79 42 -107c29 -32 72 -55 136 -55h173c9 0 13 4 13 14v181h180v-327
c0 -29 -14 -43 -43 -43zM539 895v-133h-151v133h151z" />
    <glyph glyph-name="Gcommaaccent" unicode="&#x122;" horiz-adv-x="807" 
d="M717 0h-323c-121 0 -210 42 -272 110c-54 59 -87 139 -87 228c0 98 42 187 109 249c60 55 141 89 250 89h365v-179h-365c-61 0 -99 -17 -128 -44c-31 -29 -50 -71 -50 -116c0 -41 16 -79 42 -107c29 -32 72 -55 136 -55h173c9 0 13 4 13 14v181h180v-327
c0 -29 -14 -43 -43 -43zM365 -50h177l-131 -202h-143z" />
    <glyph glyph-name="gcommaaccent" unicode="&#x123;" horiz-adv-x="807" 
d="M717 0h-323c-121 0 -210 42 -272 110c-54 59 -87 139 -87 228c0 98 42 187 109 249c60 55 141 89 250 89h365v-179h-365c-61 0 -99 -17 -128 -44c-31 -29 -50 -71 -50 -116c0 -41 16 -79 42 -107c29 -32 72 -55 136 -55h173c9 0 13 4 13 14v181h180v-327
c0 -29 -14 -43 -43 -43zM365 -50h177l-131 -202h-143z" />
    <glyph glyph-name="Hbar" unicode="&#x126;" horiz-adv-x="870" 
d="M870 595v-125h-52v-470h-182v221h-403v-221h-182v470h-51v125h51v81h182v-81h403v81h182v-81h52zM233 391h403v79h-403v-79z" />
    <glyph glyph-name="hbar" unicode="&#x127;" horiz-adv-x="870" 
d="M870 595v-125h-52v-470h-182v221h-403v-221h-182v470h-51v125h51v81h182v-81h403v81h182v-81h52zM233 391h403v79h-403v-79z" />
    <glyph glyph-name="uni012A" unicode="&#x12a;" horiz-adv-x="515" 
d="M166 676h182v-676h-182v676zM515 891v-125h-515v125h515z" />
    <glyph glyph-name="imacron" unicode="&#x12b;" horiz-adv-x="515" 
d="M166 676h182v-676h-182v676zM515 891v-125h-515v125h515z" />
    <glyph glyph-name="Ibreve" unicode="&#x12c;" horiz-adv-x="450" 
d="M134 676h182v-676h-182v676zM254 720h-59c-139 0 -193 91 -195 228h123c0 -94 35 -134 91 -134h22c54 0 92 40 92 134h122c0 -129 -52 -228 -196 -228z" />
    <glyph glyph-name="ibreve" unicode="&#x12d;" horiz-adv-x="450" 
d="M134 676h182v-676h-182v676zM254 720h-59c-139 0 -193 91 -195 228h123c0 -94 35 -134 91 -134h22c54 0 92 40 92 134h122c0 -129 -52 -228 -196 -228z" />
    <glyph glyph-name="Iogonek" unicode="&#x12e;" horiz-adv-x="334" 
d="M51 676h182v-676h-182v676zM381 -252h-138c-115 0 -145 56 -156 134l142 104v-47c0 -23 9 -34 39 -34h113v-157z" />
    <glyph glyph-name="iogonek" unicode="&#x12f;" horiz-adv-x="334" 
d="M51 676h182v-676h-182v676zM381 -252h-138c-115 0 -145 56 -156 134l142 104v-47c0 -23 9 -34 39 -34h113v-157z" />
    <glyph glyph-name="Idotaccent" unicode="&#x130;" horiz-adv-x="284" 
d="M51 676h182v-676h-182v676zM217 895v-133h-151v133h151z" />
    <glyph glyph-name="dotlessi" unicode="&#x131;" horiz-adv-x="284" 
d="M51 676h182v-676h-182v676z" />
    <glyph glyph-name="IJ" unicode="&#x132;" horiz-adv-x="993" 
d="M51 676h182v-676h-182v676zM681 0h-377v173h377c60 0 84 29 84 84v419h183v-411c0 -166 -85 -265 -267 -265z" />
    <glyph glyph-name="ij" unicode="&#x133;" horiz-adv-x="993" 
d="M51 676h182v-676h-182v676zM681 0h-377v173h377c60 0 84 29 84 84v419h183v-411c0 -166 -85 -265 -267 -265z" />
    <glyph glyph-name="Kcommaaccent" unicode="&#x136;" horiz-adv-x="871" 
d="M50 676h183v-277l308 249c10 8 21 19 28 28h253c-4 -6 -12 -13 -18 -18l-372 -288c-4 -3 -6 -6 -6 -11s1 -7 6 -11l399 -323c9 -8 18 -16 26 -25h-270c-8 9 -18 18 -30 28l-324 271v-299h-183v676zM337 -50h177l-131 -202h-143z" />
    <glyph glyph-name="kcommaaccent" unicode="&#x137;" horiz-adv-x="871" 
d="M50 676h183v-277l308 249c10 8 21 19 28 28h253c-4 -6 -12 -13 -18 -18l-372 -288c-4 -3 -6 -6 -6 -11s1 -7 6 -11l399 -323c9 -8 18 -16 26 -25h-270c-8 9 -18 18 -30 28l-324 271v-299h-183v676zM337 -50h177l-131 -202h-143z" />
    <glyph glyph-name="Lacute" unicode="&#x139;" horiz-adv-x="777" 
d="M757 0h-491c-166 0 -220 73 -220 220v456h182v-439c0 -49 13 -64 60 -64h469v-173zM243 948h190l-158 -228h-151z" />
    <glyph glyph-name="lacute" unicode="&#x13a;" horiz-adv-x="777" 
d="M757 0h-491c-166 0 -220 73 -220 220v456h182v-439c0 -49 13 -64 60 -64h469v-173zM243 948h190l-158 -228h-151z" />
    <glyph glyph-name="Lcommaaccent" unicode="&#x13b;" horiz-adv-x="777" 
d="M757 0h-491c-166 0 -220 73 -220 220v456h182v-439c0 -49 13 -64 60 -64h469v-173zM340 -50h177l-131 -202h-143z" />
    <glyph glyph-name="lcommaaccent" unicode="&#x13c;" horiz-adv-x="777" 
d="M757 0h-491c-166 0 -220 73 -220 220v456h182v-439c0 -49 13 -64 60 -64h469v-173zM340 -50h177l-131 -202h-143z" />
    <glyph glyph-name="Lcaron" unicode="&#x13d;" horiz-adv-x="777" 
d="M757 0h-491c-166 0 -220 73 -220 220v456h182v-439c0 -49 13 -64 60 -64h469v-173zM407 706h177l-131 -202h-143z" />
    <glyph glyph-name="lcaron" unicode="&#x13e;" horiz-adv-x="777" 
d="M757 0h-491c-166 0 -220 73 -220 220v456h182v-439c0 -49 13 -64 60 -64h469v-173zM407 706h177l-131 -202h-143z" />
    <glyph glyph-name="Lslash" unicode="&#x141;" horiz-adv-x="777" 
d="M514 691v-170c-10 -3 -19 -9 -28 -14l-258 -153v-117c0 -49 13 -64 60 -64h469v-173h-491c-166 0 -220 73 -220 220v456h182v-148l258 149c9 5 18 10 28 14z" />
    <glyph glyph-name="lslash" unicode="&#x142;" horiz-adv-x="777" 
d="M514 691v-170c-10 -3 -19 -9 -28 -14l-258 -153v-117c0 -49 13 -64 60 -64h469v-173h-491c-166 0 -220 73 -220 220v456h182v-148l258 149c9 5 18 10 28 14z" />
    <glyph glyph-name="Nacute" unicode="&#x143;" 
d="M889 676v-545c0 -102 -61 -145 -127 -145c-57 0 -100 16 -132 53l-371 429c-5 6 -10 9 -16 9c-9 0 -17 -7 -17 -19v-458h-178v533c0 115 66 158 157 158c64 0 104 -17 146 -67l330 -395c5 -7 11 -8 17 -8c8 0 14 6 14 18v437h177zM484 948h190l-158 -228h-151z" />
    <glyph glyph-name="nacute" unicode="&#x144;" 
d="M889 676v-545c0 -102 -61 -145 -127 -145c-57 0 -100 16 -132 53l-371 429c-5 6 -10 9 -16 9c-9 0 -17 -7 -17 -19v-458h-178v533c0 115 66 158 157 158c64 0 104 -17 146 -67l330 -395c5 -7 11 -8 17 -8c8 0 14 6 14 18v437h177zM484 948h190l-158 -228h-151z" />
    <glyph glyph-name="Ncommaaccent" unicode="&#x145;" 
d="M889 676v-545c0 -102 -61 -145 -127 -145c-57 0 -100 16 -132 53l-371 429c-5 6 -10 9 -16 9c-9 0 -17 -7 -17 -19v-458h-178v533c0 115 66 158 157 158c64 0 104 -17 146 -67l330 -395c5 -7 11 -8 17 -8c8 0 14 6 14 18v437h177zM401 -50h177l-131 -202h-143z" />
    <glyph glyph-name="ncommaaccent" unicode="&#x146;" 
d="M889 676v-545c0 -102 -61 -145 -127 -145c-57 0 -100 16 -132 53l-371 429c-5 6 -10 9 -16 9c-9 0 -17 -7 -17 -19v-458h-178v533c0 115 66 158 157 158c64 0 104 -17 146 -67l330 -395c5 -7 11 -8 17 -8c8 0 14 6 14 18v437h177zM401 -50h177l-131 -202h-143z" />
    <glyph glyph-name="Ncaron" unicode="&#x147;" 
d="M889 676v-545c0 -102 -61 -145 -127 -145c-57 0 -100 16 -132 53l-371 429c-5 6 -10 9 -16 9c-9 0 -17 -7 -17 -19v-458h-178v533c0 115 66 158 157 158c64 0 104 -17 146 -67l330 -395c5 -7 11 -8 17 -8c8 0 14 6 14 18v437h177zM544 720h-148l-175 228h153l96 -134
l96 134h152z" />
    <glyph glyph-name="ncaron" unicode="&#x148;" 
d="M889 676v-545c0 -102 -61 -145 -127 -145c-57 0 -100 16 -132 53l-371 429c-5 6 -10 9 -16 9c-9 0 -17 -7 -17 -19v-458h-178v533c0 115 66 158 157 158c64 0 104 -17 146 -67l330 -395c5 -7 11 -8 17 -8c8 0 14 6 14 18v437h177zM544 720h-148l-175 228h153l96 -134
l96 134h152z" />
    <glyph glyph-name="Eng" unicode="&#x14a;" 
d="M622 -253h-227v173h227c60 0 84 29 84 83c-36 7 -65 23 -88 50l-359 415c-5 6 -10 9 -16 9c-9 0 -17 -7 -17 -19v-458h-178v533c0 115 66 158 157 158c64 0 104 -17 146 -67l330 -399c8 -10 17 -14 31 -14v465h177v-664c0 -166 -85 -265 -267 -265z" />
    <glyph glyph-name="eng" unicode="&#x14b;" 
d="M622 -253h-227v173h227c60 0 84 29 84 83c-36 7 -65 23 -88 50l-359 415c-5 6 -10 9 -16 9c-9 0 -17 -7 -17 -19v-458h-178v533c0 115 66 158 157 158c64 0 104 -17 146 -67l330 -399c8 -10 17 -14 31 -14v465h177v-664c0 -166 -85 -265 -267 -265z" />
    <glyph glyph-name="Omacron" unicode="&#x14c;" horiz-adv-x="932" 
d="M536 0h-142c-121 0 -210 42 -272 110c-54 59 -87 139 -87 228c0 98 42 187 109 249c60 55 141 89 250 89h142c109 0 190 -34 250 -89c67 -62 109 -151 109 -249c0 -89 -33 -169 -87 -228c-62 -68 -151 -110 -272 -110zM536 497h-142c-61 0 -99 -17 -128 -44
c-31 -29 -50 -71 -50 -116c0 -41 16 -79 42 -107c29 -32 72 -52 136 -52h142c64 0 107 20 136 52c26 28 42 66 42 107c0 45 -19 87 -50 116c-29 27 -67 44 -128 44zM723 891v-125h-515v125h515z" />
    <glyph glyph-name="omacron" unicode="&#x14d;" horiz-adv-x="932" 
d="M536 0h-142c-121 0 -210 42 -272 110c-54 59 -87 139 -87 228c0 98 42 187 109 249c60 55 141 89 250 89h142c109 0 190 -34 250 -89c67 -62 109 -151 109 -249c0 -89 -33 -169 -87 -228c-62 -68 -151 -110 -272 -110zM536 497h-142c-61 0 -99 -17 -128 -44
c-31 -29 -50 -71 -50 -116c0 -41 16 -79 42 -107c29 -32 72 -52 136 -52h142c64 0 107 20 136 52c26 28 42 66 42 107c0 45 -19 87 -50 116c-29 27 -67 44 -128 44zM723 891v-125h-515v125h515z" />
    <glyph glyph-name="Ohungarumlaut" unicode="&#x150;" horiz-adv-x="932" 
d="M536 0h-142c-121 0 -210 42 -272 110c-54 59 -87 139 -87 228c0 98 42 187 109 249c60 55 141 89 250 89h142c109 0 190 -34 250 -89c67 -62 109 -151 109 -249c0 -89 -33 -169 -87 -228c-62 -68 -151 -110 -272 -110zM536 497h-142c-61 0 -99 -17 -128 -44
c-31 -29 -50 -71 -50 -116c0 -41 16 -79 42 -107c29 -32 72 -52 136 -52h142c64 0 107 20 136 52c26 28 42 66 42 107c0 45 -19 87 -50 116c-29 27 -67 44 -128 44zM615 948h190l-158 -228h-151zM346 948h190l-158 -228h-151z" />
    <glyph glyph-name="ohungarumlaut" unicode="&#x151;" horiz-adv-x="932" 
d="M536 0h-142c-121 0 -210 42 -272 110c-54 59 -87 139 -87 228c0 98 42 187 109 249c60 55 141 89 250 89h142c109 0 190 -34 250 -89c67 -62 109 -151 109 -249c0 -89 -33 -169 -87 -228c-62 -68 -151 -110 -272 -110zM536 497h-142c-61 0 -99 -17 -128 -44
c-31 -29 -50 -71 -50 -116c0 -41 16 -79 42 -107c29 -32 72 -52 136 -52h142c64 0 107 20 136 52c26 28 42 66 42 107c0 45 -19 87 -50 116c-29 27 -67 44 -128 44zM615 948h190l-158 -228h-151zM346 948h190l-158 -228h-151z" />
    <glyph glyph-name="OE" unicode="&#x152;" horiz-adv-x="1325" 
d="M1290 0h-896c-121 0 -210 42 -272 110c-54 59 -87 139 -87 228c0 98 42 187 109 249c60 55 141 89 250 89h896v-179h-501v-94h497v-130h-497v-100h501v-173zM258 230c29 -32 72 -52 136 -52h215v319h-215c-61 0 -99 -17 -128 -44c-31 -29 -50 -71 -50 -116
c0 -41 16 -79 42 -107z" />
    <glyph glyph-name="oe" unicode="&#x153;" horiz-adv-x="1325" 
d="M1290 0h-896c-121 0 -210 42 -272 110c-54 59 -87 139 -87 228c0 98 42 187 109 249c60 55 141 89 250 89h896v-179h-501v-94h497v-130h-497v-100h501v-173zM258 230c29 -32 72 -52 136 -52h215v319h-215c-61 0 -99 -17 -128 -44c-31 -29 -50 -71 -50 -116
c0 -41 16 -79 42 -107z" />
    <glyph glyph-name="Racute" unicode="&#x154;" horiz-adv-x="842" 
d="M231 240v-240h-181v634c0 28 15 42 45 42h480c83 0 136 -25 173 -64c33 -35 54 -82 54 -133c0 -54 -16 -105 -64 -140c45 -27 65 -63 65 -140v-135c0 -29 1 -45 3 -64h-183c-2 15 -3 30 -3 45v135c0 43 -21 60 -74 60h-315zM231 394h320c25 0 40 9 51 22
c8 10 13 22 13 35c0 14 -5 28 -15 38c-10 11 -26 18 -49 18h-305c-10 0 -15 -6 -15 -15v-98zM435 948h190l-158 -228h-151z" />
    <glyph glyph-name="racute" unicode="&#x155;" horiz-adv-x="842" 
d="M231 240v-240h-181v634c0 28 15 42 45 42h480c83 0 136 -25 173 -64c33 -35 54 -82 54 -133c0 -54 -16 -105 -64 -140c45 -27 65 -63 65 -140v-135c0 -29 1 -45 3 -64h-183c-2 15 -3 30 -3 45v135c0 43 -21 60 -74 60h-315zM231 394h320c25 0 40 9 51 22
c8 10 13 22 13 35c0 14 -5 28 -15 38c-10 11 -26 18 -49 18h-305c-10 0 -15 -6 -15 -15v-98zM435 948h190l-158 -228h-151z" />
    <glyph glyph-name="Rcommaaccent" unicode="&#x156;" horiz-adv-x="842" 
d="M231 240v-240h-181v634c0 28 15 42 45 42h480c83 0 136 -25 173 -64c33 -35 54 -82 54 -133c0 -54 -16 -105 -64 -140c45 -27 65 -63 65 -140v-135c0 -29 1 -45 3 -64h-183c-2 15 -3 30 -3 45v135c0 43 -21 60 -74 60h-315zM231 394h320c25 0 40 9 51 22
c8 10 13 22 13 35c0 14 -5 28 -15 38c-10 11 -26 18 -49 18h-305c-10 0 -15 -6 -15 -15v-98zM355 -50h177l-131 -202h-143z" />
    <glyph glyph-name="rcommaaccent" unicode="&#x157;" horiz-adv-x="842" 
d="M231 240v-240h-181v634c0 28 15 42 45 42h480c83 0 136 -25 173 -64c33 -35 54 -82 54 -133c0 -54 -16 -105 -64 -140c45 -27 65 -63 65 -140v-135c0 -29 1 -45 3 -64h-183c-2 15 -3 30 -3 45v135c0 43 -21 60 -74 60h-315zM231 394h320c25 0 40 9 51 22
c8 10 13 22 13 35c0 14 -5 28 -15 38c-10 11 -26 18 -49 18h-305c-10 0 -15 -6 -15 -15v-98zM355 -50h177l-131 -202h-143z" />
    <glyph glyph-name="Rcaron" unicode="&#x158;" horiz-adv-x="842" 
d="M231 240v-240h-181v634c0 28 15 42 45 42h480c83 0 136 -25 173 -64c33 -35 54 -82 54 -133c0 -54 -16 -105 -64 -140c45 -27 65 -63 65 -140v-135c0 -29 1 -45 3 -64h-183c-2 15 -3 30 -3 45v135c0 43 -21 60 -74 60h-315zM231 394h320c25 0 40 9 51 22
c8 10 13 22 13 35c0 14 -5 28 -15 38c-10 11 -26 18 -49 18h-305c-10 0 -15 -6 -15 -15v-98zM495 720h-148l-175 228h153l96 -134l96 134h152z" />
    <glyph glyph-name="rcaron" unicode="&#x159;" horiz-adv-x="842" 
d="M231 240v-240h-181v634c0 28 15 42 45 42h480c83 0 136 -25 173 -64c33 -35 54 -82 54 -133c0 -54 -16 -105 -64 -140c45 -27 65 -63 65 -140v-135c0 -29 1 -45 3 -64h-183c-2 15 -3 30 -3 45v135c0 43 -21 60 -74 60h-315zM231 394h320c25 0 40 9 51 22
c8 10 13 22 13 35c0 14 -5 28 -15 38c-10 11 -26 18 -49 18h-305c-10 0 -15 -6 -15 -15v-98zM495 720h-148l-175 228h153l96 -134l96 134h152z" />
    <glyph glyph-name="Sacute" unicode="&#x15a;" horiz-adv-x="812" 
d="M757 676v-179h-486c-22 0 -34 -5 -42 -13c-9 -9 -14 -21 -14 -35c0 -15 7 -28 17 -36c8 -7 18 -10 39 -10h297c76 0 127 -24 163 -61s58 -87 58 -140c0 -49 -19 -96 -50 -132c-37 -43 -91 -70 -171 -70h-524v173h492c28 0 42 6 51 17c7 8 11 19 11 31c0 14 -5 27 -14 36
c-9 10 -22 15 -48 15h-275c-90 0 -142 24 -178 61s-57 86 -57 141c0 54 22 104 58 141s87 61 177 61h496zM430 948h190l-158 -228h-151z" />
    <glyph glyph-name="sacute" unicode="&#x15b;" horiz-adv-x="812" 
d="M757 676v-179h-486c-22 0 -34 -5 -42 -13c-9 -9 -14 -21 -14 -35c0 -15 7 -28 17 -36c8 -7 18 -10 39 -10h297c76 0 127 -24 163 -61s58 -87 58 -140c0 -49 -19 -96 -50 -132c-37 -43 -91 -70 -171 -70h-524v173h492c28 0 42 6 51 17c7 8 11 19 11 31c0 14 -5 27 -14 36
c-9 10 -22 15 -48 15h-275c-90 0 -142 24 -178 61s-57 86 -57 141c0 54 22 104 58 141s87 61 177 61h496zM430 948h190l-158 -228h-151z" />
    <glyph glyph-name="Scedilla" unicode="&#x15e;" horiz-adv-x="812" 
d="M757 676v-179h-486c-22 0 -34 -5 -42 -13c-9 -9 -14 -21 -14 -35c0 -15 7 -28 17 -36c8 -7 18 -10 39 -10h297c76 0 127 -24 163 -61s58 -87 58 -140c0 -49 -19 -96 -50 -132c-37 -43 -91 -70 -171 -70h-524v173h492c28 0 42 6 51 17c7 8 11 19 11 31c0 14 -5 27 -14 36
c-9 10 -22 15 -48 15h-275c-90 0 -142 24 -178 61s-57 86 -57 141c0 54 22 104 58 141s87 61 177 61h496zM338 -50h177l-131 -202h-143z" />
    <glyph glyph-name="scedilla" unicode="&#x15f;" horiz-adv-x="812" 
d="M757 676v-179h-486c-22 0 -34 -5 -42 -13c-9 -9 -14 -21 -14 -35c0 -15 7 -28 17 -36c8 -7 18 -10 39 -10h297c76 0 127 -24 163 -61s58 -87 58 -140c0 -49 -19 -96 -50 -132c-37 -43 -91 -70 -171 -70h-524v173h492c28 0 42 6 51 17c7 8 11 19 11 31c0 14 -5 27 -14 36
c-9 10 -22 15 -48 15h-275c-90 0 -142 24 -178 61s-57 86 -57 141c0 54 22 104 58 141s87 61 177 61h496zM338 -50h177l-131 -202h-143z" />
    <glyph glyph-name="Scaron" unicode="&#x160;" horiz-adv-x="812" 
d="M757 676v-179h-486c-22 0 -34 -5 -42 -13c-9 -9 -14 -21 -14 -35c0 -15 7 -28 17 -36c8 -7 18 -10 39 -10h297c76 0 127 -24 163 -61s58 -87 58 -140c0 -49 -19 -96 -50 -132c-37 -43 -91 -70 -171 -70h-524v173h492c28 0 42 6 51 17c7 8 11 19 11 31c0 14 -5 27 -14 36
c-9 10 -22 15 -48 15h-275c-90 0 -142 24 -178 61s-57 86 -57 141c0 54 22 104 58 141s87 61 177 61h496zM490 720h-148l-175 228h153l96 -134l96 134h152z" />
    <glyph glyph-name="scaron" unicode="&#x161;" horiz-adv-x="812" 
d="M757 676v-179h-486c-22 0 -34 -5 -42 -13c-9 -9 -14 -21 -14 -35c0 -15 7 -28 17 -36c8 -7 18 -10 39 -10h297c76 0 127 -24 163 -61s58 -87 58 -140c0 -49 -19 -96 -50 -132c-37 -43 -91 -70 -171 -70h-524v173h492c28 0 42 6 51 17c7 8 11 19 11 31c0 14 -5 27 -14 36
c-9 10 -22 15 -48 15h-275c-90 0 -142 24 -178 61s-57 86 -57 141c0 54 22 104 58 141s87 61 177 61h496zM490 720h-148l-175 228h153l96 -134l96 134h152z" />
    <glyph glyph-name="Tcedilla" unicode="&#x162;" horiz-adv-x="816" 
d="M20 676h775v-179h-296v-497h-182v497h-297v179zM320 -50h177l-131 -202h-143z" />
    <glyph glyph-name="tcedilla" unicode="&#x163;" horiz-adv-x="816" 
d="M20 676h775v-179h-296v-497h-182v497h-297v179zM320 -50h177l-131 -202h-143z" />
    <glyph glyph-name="Tcaron" unicode="&#x164;" horiz-adv-x="816" 
d="M20 676h775v-179h-296v-497h-182v497h-297v179zM482 720h-148l-175 228h153l96 -134l96 134h152z" />
    <glyph glyph-name="tcaron" unicode="&#x165;" horiz-adv-x="816" 
d="M20 676h775v-179h-296v-497h-182v497h-297v179zM482 720h-148l-175 228h153l96 -134l96 134h152z" />
    <glyph glyph-name="Tbar" unicode="&#x166;" horiz-adv-x="816" 
d="M172 248v150h145v99h-297v179h775v-179h-296v-99h145v-150h-145v-248h-182v248h-145z" />
    <glyph glyph-name="tbar" unicode="&#x167;" horiz-adv-x="816" 
d="M172 248v150h145v99h-297v179h775v-179h-296v-99h145v-150h-145v-248h-182v248h-145z" />
    <glyph glyph-name="Utilde" unicode="&#x168;" horiz-adv-x="869" 
d="M586 0h-303c-170 0 -237 65 -237 216v460h182v-440c0 -42 20 -63 65 -63h281c45 0 67 20 67 63v440h182v-460c0 -151 -67 -216 -237 -216zM692 891v-125h-515v125h515z" />
    <glyph glyph-name="utilde" unicode="&#x169;" horiz-adv-x="869" 
d="M586 0h-303c-170 0 -237 65 -237 216v460h182v-440c0 -42 20 -63 65 -63h281c45 0 67 20 67 63v440h182v-460c0 -151 -67 -216 -237 -216zM692 891v-125h-515v125h515z" />
    <glyph glyph-name="Umacron" unicode="&#x16a;" horiz-adv-x="869" 
d="M586 0h-303c-170 0 -237 65 -237 216v460h182v-440c0 -42 20 -63 65 -63h281c45 0 67 20 67 63v440h182v-460c0 -151 -67 -216 -237 -216zM692 891v-125h-515v125h515z" />
    <glyph glyph-name="umacron" unicode="&#x16b;" horiz-adv-x="869" 
d="M586 0h-303c-170 0 -237 65 -237 216v460h182v-440c0 -42 20 -63 65 -63h281c45 0 67 20 67 63v440h182v-460c0 -151 -67 -216 -237 -216zM692 891v-125h-515v125h515z" />
    <glyph glyph-name="Ubreve" unicode="&#x16c;" horiz-adv-x="869" 
d="M586 0h-303c-170 0 -237 65 -237 216v460h182v-440c0 -42 20 -63 65 -63h281c45 0 67 20 67 63v440h182v-460c0 -151 -67 -216 -237 -216zM463 720h-59c-139 0 -193 91 -195 228h123c0 -94 35 -134 91 -134h22c54 0 92 40 92 134h122c0 -129 -52 -228 -196 -228z" />
    <glyph glyph-name="ubreve" unicode="&#x16d;" horiz-adv-x="869" 
d="M586 0h-303c-170 0 -237 65 -237 216v460h182v-440c0 -42 20 -63 65 -63h281c45 0 67 20 67 63v440h182v-460c0 -151 -67 -216 -237 -216zM463 720h-59c-139 0 -193 91 -195 228h123c0 -94 35 -134 91 -134h22c54 0 92 40 92 134h122c0 -129 -52 -228 -196 -228z" />
    <glyph glyph-name="Uring" unicode="&#x16e;" horiz-adv-x="869" 
d="M586 0h-303c-170 0 -237 65 -237 216v460h182v-440c0 -42 20 -63 65 -63h281c45 0 67 20 67 63v440h182v-460c0 -151 -67 -216 -237 -216zM477 695h-87c-45 0 -78 16 -101 41c-21 22 -33 52 -33 85c0 37 16 71 41 94c22 20 53 33 93 33h87c41 0 71 -13 93 -33
c26 -23 42 -57 42 -94c0 -33 -13 -63 -33 -85c-23 -25 -56 -41 -102 -41zM476 873h-84c-20 0 -32 -6 -42 -15s-15 -22 -15 -37c0 -13 4 -25 13 -34c10 -12 23 -17 44 -17h84c20 0 34 5 43 17c9 9 14 21 14 34c0 15 -6 28 -16 37s-22 15 -41 15z" />
    <glyph glyph-name="uring" unicode="&#x16f;" horiz-adv-x="869" 
d="M586 0h-303c-170 0 -237 65 -237 216v460h182v-440c0 -42 20 -63 65 -63h281c45 0 67 20 67 63v440h182v-460c0 -151 -67 -216 -237 -216zM477 695h-87c-45 0 -78 16 -101 41c-21 22 -33 52 -33 85c0 37 16 71 41 94c22 20 53 33 93 33h87c41 0 71 -13 93 -33
c26 -23 42 -57 42 -94c0 -33 -13 -63 -33 -85c-23 -25 -56 -41 -102 -41zM476 873h-84c-20 0 -32 -6 -42 -15s-15 -22 -15 -37c0 -13 4 -25 13 -34c10 -12 23 -17 44 -17h84c20 0 34 5 43 17c9 9 14 21 14 34c0 15 -6 28 -16 37s-22 15 -41 15z" />
    <glyph glyph-name="Uhungarumlaut" unicode="&#x170;" horiz-adv-x="869" 
d="M586 0h-303c-170 0 -237 65 -237 216v460h182v-440c0 -42 20 -63 65 -63h281c45 0 67 20 67 63v440h182v-460c0 -151 -67 -216 -237 -216zM583 948h190l-158 -228h-151zM314 948h190l-158 -228h-151z" />
    <glyph glyph-name="uhungarumlaut" unicode="&#x171;" horiz-adv-x="869" 
d="M586 0h-303c-170 0 -237 65 -237 216v460h182v-440c0 -42 20 -63 65 -63h281c45 0 67 20 67 63v440h182v-460c0 -151 -67 -216 -237 -216zM583 948h190l-158 -228h-151zM314 948h190l-158 -228h-151z" />
    <glyph glyph-name="Uogonek" unicode="&#x172;" horiz-adv-x="869" 
d="M586 0h-303c-170 0 -237 65 -237 216v460h182v-440c0 -42 20 -63 65 -63h281c45 0 67 20 67 63v440h182v-460c0 -151 -67 -216 -237 -216zM801 -252h-138c-115 0 -145 56 -156 134l142 104v-47c0 -23 9 -34 39 -34h113v-157z" />
    <glyph glyph-name="uogonek" unicode="&#x173;" horiz-adv-x="869" 
d="M586 0h-303c-170 0 -237 65 -237 216v460h182v-440c0 -42 20 -63 65 -63h281c45 0 67 20 67 63v440h182v-460c0 -151 -67 -216 -237 -216zM801 -252h-138c-115 0 -145 56 -156 134l142 104v-47c0 -23 9 -34 39 -34h113v-157z" />
    <glyph glyph-name="Wcircumflex" unicode="&#x174;" horiz-adv-x="1251" 
d="M628 530c-11 0 -18 -5 -22 -20l-105 -373c-29 -104 -92 -151 -196 -151c-123 0 -182 65 -196 151l-84 507c-2 13 -3 22 -3 32h191c0 -7 1 -17 2 -26l71 -462c2 -16 10 -23 24 -23c12 0 20 5 24 21l103 363c28 97 82 142 191 142c108 0 159 -45 184 -137l101 -368
c4 -16 12 -21 24 -21c14 0 21 7 24 23l77 462c2 10 2 20 2 26h189c0 -10 -1 -18 -3 -32l-90 -508c-16 -89 -76 -150 -198 -150c-102 0 -164 49 -191 151l-97 373c-4 15 -11 20 -22 20zM552 948h148l174 -228h-152l-96 132l-96 -132h-153z" />
    <glyph glyph-name="wcircumflex" unicode="&#x175;" horiz-adv-x="1251" 
d="M628 530c-11 0 -18 -5 -22 -20l-105 -373c-29 -104 -92 -151 -196 -151c-123 0 -182 65 -196 151l-84 507c-2 13 -3 22 -3 32h191c0 -7 1 -17 2 -26l71 -462c2 -16 10 -23 24 -23c12 0 20 5 24 21l103 363c28 97 82 142 191 142c108 0 159 -45 184 -137l101 -368
c4 -16 12 -21 24 -21c14 0 21 7 24 23l77 462c2 10 2 20 2 26h189c0 -10 -1 -18 -3 -32l-90 -508c-16 -89 -76 -150 -198 -150c-102 0 -164 49 -191 151l-97 373c-4 15 -11 20 -22 20zM552 948h148l174 -228h-152l-96 132l-96 -132h-153z" />
    <glyph glyph-name="Ycircumflex" unicode="&#x176;" horiz-adv-x="854" 
d="M330 315l-307 338c-10 11 -14 16 -17 23h223c2 -5 7 -14 16 -23l170 -185c4 -4 8 -7 14 -7s10 3 14 7l169 185c9 9 15 18 17 23h219c-4 -7 -8 -12 -18 -23l-317 -350v-303h-183v315zM353 948h148l174 -228h-152l-96 132l-96 -132h-153z" />
    <glyph glyph-name="ycircumflex" unicode="&#x177;" horiz-adv-x="854" 
d="M330 315l-307 338c-10 11 -14 16 -17 23h223c2 -5 7 -14 16 -23l170 -185c4 -4 8 -7 14 -7s10 3 14 7l169 185c9 9 15 18 17 23h219c-4 -7 -8 -12 -18 -23l-317 -350v-303h-183v315zM353 948h148l174 -228h-152l-96 132l-96 -132h-153z" />
    <glyph glyph-name="Ydieresis" unicode="&#x178;" horiz-adv-x="854" 
d="M330 315l-307 338c-10 11 -14 16 -17 23h223c2 -5 7 -14 16 -23l170 -185c4 -4 8 -7 14 -7s10 3 14 7l169 185c9 9 15 18 17 23h219c-4 -7 -8 -12 -18 -23l-317 -350v-303h-183v315zM660 895v-133h-152v133h152zM345 895v-133h-151v133h151z" />
    <glyph glyph-name="Zacute" unicode="&#x179;" horiz-adv-x="798" 
d="M340 173h425v-173h-596c-53 0 -85 18 -105 44c-16 21 -25 46 -25 73c0 24 9 50 29 74c9 10 21 19 47 37l363 255c2 1 3 4 3 6c0 4 -3 8 -8 8h-429v179h583c51 0 79 -15 99 -36s31 -49 31 -74c0 -18 -4 -35 -11 -51s-17 -30 -47 -52l-365 -272c-4 -3 -6 -6 -6 -9
c0 -5 4 -9 12 -9zM423 948h190l-158 -228h-151z" />
    <glyph glyph-name="zacute" unicode="&#x17a;" horiz-adv-x="798" 
d="M340 173h425v-173h-596c-53 0 -85 18 -105 44c-16 21 -25 46 -25 73c0 24 9 50 29 74c9 10 21 19 47 37l363 255c2 1 3 4 3 6c0 4 -3 8 -8 8h-429v179h583c51 0 79 -15 99 -36s31 -49 31 -74c0 -18 -4 -35 -11 -51s-17 -30 -47 -52l-365 -272c-4 -3 -6 -6 -6 -9
c0 -5 4 -9 12 -9zM423 948h190l-158 -228h-151z" />
    <glyph glyph-name="Zdotaccent" unicode="&#x17b;" horiz-adv-x="798" 
d="M340 173h425v-173h-596c-53 0 -85 18 -105 44c-16 21 -25 46 -25 73c0 24 9 50 29 74c9 10 21 19 47 37l363 255c2 1 3 4 3 6c0 4 -3 8 -8 8h-429v179h583c51 0 79 -15 99 -36s31 -49 31 -74c0 -18 -4 -35 -11 -51s-17 -30 -47 -52l-365 -272c-4 -3 -6 -6 -6 -9
c0 -5 4 -9 12 -9zM484 895v-133h-151v133h151z" />
    <glyph glyph-name="zdotaccent" unicode="&#x17c;" horiz-adv-x="798" 
d="M340 173h425v-173h-596c-53 0 -85 18 -105 44c-16 21 -25 46 -25 73c0 24 9 50 29 74c9 10 21 19 47 37l363 255c2 1 3 4 3 6c0 4 -3 8 -8 8h-429v179h583c51 0 79 -15 99 -36s31 -49 31 -74c0 -18 -4 -35 -11 -51s-17 -30 -47 -52l-365 -272c-4 -3 -6 -6 -6 -9
c0 -5 4 -9 12 -9zM484 895v-133h-151v133h151z" />
    <glyph glyph-name="Zcaron" unicode="&#x17d;" horiz-adv-x="798" 
d="M340 173h425v-173h-596c-53 0 -85 18 -105 44c-16 21 -25 46 -25 73c0 24 9 50 29 74c9 10 21 19 47 37l363 255c2 1 3 4 3 6c0 4 -3 8 -8 8h-429v179h583c51 0 79 -15 99 -36s31 -49 31 -74c0 -18 -4 -35 -11 -51s-17 -30 -47 -52l-365 -272c-4 -3 -6 -6 -6 -9
c0 -5 4 -9 12 -9zM483 720h-148l-175 228h153l96 -134l96 134h152z" />
    <glyph glyph-name="zcaron" unicode="&#x17e;" horiz-adv-x="798" 
d="M340 173h425v-173h-596c-53 0 -85 18 -105 44c-16 21 -25 46 -25 73c0 24 9 50 29 74c9 10 21 19 47 37l363 255c2 1 3 4 3 6c0 4 -3 8 -8 8h-429v179h583c51 0 79 -15 99 -36s31 -49 31 -74c0 -18 -4 -35 -11 -51s-17 -30 -47 -52l-365 -272c-4 -3 -6 -6 -6 -9
c0 -5 4 -9 12 -9zM483 720h-148l-175 228h153l96 -134l96 134h152z" />
    <glyph glyph-name="florin" unicode="&#x192;" horiz-adv-x="590" 
d="M74 280v116h130v31c0 155 81 249 254 249h80v-174h-82c-49 0 -70 -24 -70 -69v-37h150v-116h-150v-282c0 -149 -74 -250 -253 -250h-82v173h82c50 0 71 25 71 71v288h-130z" />
    <glyph glyph-name="Scommaaccent" unicode="&#x218;" horiz-adv-x="812" 
d="M757 676v-179h-486c-22 0 -34 -5 -42 -13c-9 -9 -14 -21 -14 -35c0 -15 7 -28 17 -36c8 -7 18 -10 39 -10h297c76 0 127 -24 163 -61s58 -87 58 -140c0 -49 -19 -96 -50 -132c-37 -43 -91 -70 -171 -70h-524v173h492c28 0 42 6 51 17c7 8 11 19 11 31c0 14 -5 27 -14 36
c-9 10 -22 15 -48 15h-275c-90 0 -142 24 -178 61s-57 86 -57 141c0 54 22 104 58 141s87 61 177 61h496zM338 -50h177l-131 -202h-143z" />
    <glyph glyph-name="scommaaccent" unicode="&#x219;" horiz-adv-x="812" 
d="M757 676v-179h-486c-22 0 -34 -5 -42 -13c-9 -9 -14 -21 -14 -35c0 -15 7 -28 17 -36c8 -7 18 -10 39 -10h297c76 0 127 -24 163 -61s58 -87 58 -140c0 -49 -19 -96 -50 -132c-37 -43 -91 -70 -171 -70h-524v173h492c28 0 42 6 51 17c7 8 11 19 11 31c0 14 -5 27 -14 36
c-9 10 -22 15 -48 15h-275c-90 0 -142 24 -178 61s-57 86 -57 141c0 54 22 104 58 141s87 61 177 61h496zM338 -50h177l-131 -202h-143z" />
    <glyph glyph-name="uni021A" unicode="&#x21a;" horiz-adv-x="816" 
d="M20 676h775v-179h-296v-497h-182v497h-297v179zM320 -50h177l-131 -202h-143z" />
    <glyph glyph-name="uni021B" unicode="&#x21b;" horiz-adv-x="816" 
d="M20 676h775v-179h-296v-497h-182v497h-297v179zM320 -50h177l-131 -202h-143z" />
    <glyph glyph-name="circumflex" unicode="&#x2c6;" horiz-adv-x="596" 
d="M224 948h148l174 -228h-152l-96 132l-96 -132h-153z" />
    <glyph glyph-name="caron" unicode="&#x2c7;" horiz-adv-x="596" 
d="M372 720h-148l-175 228h153l96 -134l96 134h152z" />
    <glyph glyph-name="breve" unicode="&#x2d8;" horiz-adv-x="550" 
d="M303 720h-59c-139 0 -193 91 -195 228h123c0 -94 35 -134 91 -134h22c54 0 92 40 92 134h122c0 -129 -52 -228 -196 -228z" />
    <glyph glyph-name="dotaccent" unicode="&#x2d9;" horiz-adv-x="252" 
d="M201 895v-133h-151v133h151z" />
    <glyph glyph-name="ring" unicode="&#x2da;" horiz-adv-x="456" 
d="M270 695h-87c-45 0 -78 16 -101 41c-21 22 -33 52 -33 85c0 37 16 71 41 94c22 20 53 33 93 33h87c41 0 71 -13 93 -33c26 -23 42 -57 42 -94c0 -33 -13 -63 -33 -85c-23 -25 -56 -41 -102 -41zM269 873h-84c-20 0 -32 -6 -42 -15s-15 -22 -15 -37c0 -13 4 -25 13 -34
c10 -12 23 -17 44 -17h84c20 0 34 5 43 17c9 9 14 21 14 34c0 15 -6 28 -16 37s-22 15 -41 15z" />
    <glyph glyph-name="ogonek" unicode="&#x2db;" horiz-adv-x="347" 
d="M344 -252h-138c-115 0 -145 56 -156 134l142 104v-47c0 -23 9 -34 39 -34h113v-157z" />
    <glyph glyph-name="tilde" unicode="&#x2dc;" horiz-adv-x="616" 
d="M565 891v-125h-515v125h515z" />
    <glyph glyph-name="hungarumlaut" unicode="&#x2dd;" horiz-adv-x="678" 
d="M438 948h190l-158 -228h-151zM169 948h190l-158 -228h-151z" />
    <glyph glyph-name="Delta" unicode="&#x394;" 
d="M663 567l244 -537c5 -11 8 -20 11 -30h-899c3 10 6 19 11 30l242 537c38 84 99 124 195 124c95 0 158 -40 196 -124zM438 492l-137 -319h331l-137 319c-6 15 -17 21 -29 21s-21 -5 -28 -21z" />
    <glyph glyph-name="Omega" unicode="&#x3a9;" horiz-adv-x="885" 
d="M546 691c193 0 293 -116 293 -273c0 -118 -71 -195 -150 -233v-12h139v-173h-294v205c79 16 137 66 137 152c0 83 -47 142 -158 142h-141c-115 0 -158 -61 -158 -142c0 -83 60 -137 137 -152v-205h-296v173h140v12c-78 37 -149 115 -149 233c0 161 101 273 292 273h208z
" />
    <glyph glyph-name="mu" unicode="&#x3bc;" horiz-adv-x="826" 
d="M542 0h-309v-252h-183v718h183v-254c0 -26 13 -39 39 -39h254c49 0 71 22 71 68v225h183v-250c0 -151 -68 -216 -238 -216z" />
    <glyph glyph-name="pi" unicode="&#x3c0;" horiz-adv-x="904" 
d="M51 466h828v-174h-110v-292h-183v292h-353v-292h-182v466z" />
    <glyph glyph-name="Wgrave" unicode="&#x1e80;" horiz-adv-x="1251" 
d="M628 530c-11 0 -18 -5 -22 -20l-105 -373c-29 -104 -92 -151 -196 -151c-123 0 -182 65 -196 151l-84 507c-2 13 -3 22 -3 32h191c0 -7 1 -17 2 -26l71 -462c2 -16 10 -23 24 -23c12 0 20 5 24 21l103 363c28 97 82 142 191 142c108 0 159 -45 184 -137l101 -368
c4 -16 12 -21 24 -21c14 0 21 7 24 23l77 462c2 10 2 20 2 26h189c0 -10 -1 -18 -3 -32l-90 -508c-16 -89 -76 -150 -198 -150c-102 0 -164 49 -191 151l-97 373c-4 15 -11 20 -22 20zM421 948h190l119 -228h-151z" />
    <glyph glyph-name="wgrave" unicode="&#x1e81;" horiz-adv-x="1251" 
d="M628 530c-11 0 -18 -5 -22 -20l-105 -373c-29 -104 -92 -151 -196 -151c-123 0 -182 65 -196 151l-84 507c-2 13 -3 22 -3 32h191c0 -7 1 -17 2 -26l71 -462c2 -16 10 -23 24 -23c12 0 20 5 24 21l103 363c28 97 82 142 191 142c108 0 159 -45 184 -137l101 -368
c4 -16 12 -21 24 -21c14 0 21 7 24 23l77 462c2 10 2 20 2 26h189c0 -10 -1 -18 -3 -32l-90 -508c-16 -89 -76 -150 -198 -150c-102 0 -164 49 -191 151l-97 373c-4 15 -11 20 -22 20zM421 948h190l119 -228h-151z" />
    <glyph glyph-name="Wacute" unicode="&#x1e82;" horiz-adv-x="1251" 
d="M628 530c-11 0 -18 -5 -22 -20l-105 -373c-29 -104 -92 -151 -196 -151c-123 0 -182 65 -196 151l-84 507c-2 13 -3 22 -3 32h191c0 -7 1 -17 2 -26l71 -462c2 -16 10 -23 24 -23c12 0 20 5 24 21l103 363c28 97 82 142 191 142c108 0 159 -45 184 -137l101 -368
c4 -16 12 -21 24 -21c14 0 21 7 24 23l77 462c2 10 2 20 2 26h189c0 -10 -1 -18 -3 -32l-90 -508c-16 -89 -76 -150 -198 -150c-102 0 -164 49 -191 151l-97 373c-4 15 -11 20 -22 20zM640 948h190l-158 -228h-151z" />
    <glyph glyph-name="wacute" unicode="&#x1e83;" horiz-adv-x="1251" 
d="M628 530c-11 0 -18 -5 -22 -20l-105 -373c-29 -104 -92 -151 -196 -151c-123 0 -182 65 -196 151l-84 507c-2 13 -3 22 -3 32h191c0 -7 1 -17 2 -26l71 -462c2 -16 10 -23 24 -23c12 0 20 5 24 21l103 363c28 97 82 142 191 142c108 0 159 -45 184 -137l101 -368
c4 -16 12 -21 24 -21c14 0 21 7 24 23l77 462c2 10 2 20 2 26h189c0 -10 -1 -18 -3 -32l-90 -508c-16 -89 -76 -150 -198 -150c-102 0 -164 49 -191 151l-97 373c-4 15 -11 20 -22 20zM640 948h190l-158 -228h-151z" />
    <glyph glyph-name="Wdieresis" unicode="&#x1e84;" horiz-adv-x="1251" 
d="M628 530c-11 0 -18 -5 -22 -20l-105 -373c-29 -104 -92 -151 -196 -151c-123 0 -182 65 -196 151l-84 507c-2 13 -3 22 -3 32h191c0 -7 1 -17 2 -26l71 -462c2 -16 10 -23 24 -23c12 0 20 5 24 21l103 363c28 97 82 142 191 142c108 0 159 -45 184 -137l101 -368
c4 -16 12 -21 24 -21c14 0 21 7 24 23l77 462c2 10 2 20 2 26h189c0 -10 -1 -18 -3 -32l-90 -508c-16 -89 -76 -150 -198 -150c-102 0 -164 49 -191 151l-97 373c-4 15 -11 20 -22 20zM858 895v-133h-152v133h152zM543 895v-133h-151v133h151z" />
    <glyph glyph-name="wdieresis" unicode="&#x1e85;" horiz-adv-x="1251" 
d="M628 530c-11 0 -18 -5 -22 -20l-105 -373c-29 -104 -92 -151 -196 -151c-123 0 -182 65 -196 151l-84 507c-2 13 -3 22 -3 32h191c0 -7 1 -17 2 -26l71 -462c2 -16 10 -23 24 -23c12 0 20 5 24 21l103 363c28 97 82 142 191 142c108 0 159 -45 184 -137l101 -368
c4 -16 12 -21 24 -21c14 0 21 7 24 23l77 462c2 10 2 20 2 26h189c0 -10 -1 -18 -3 -32l-90 -508c-16 -89 -76 -150 -198 -150c-102 0 -164 49 -191 151l-97 373c-4 15 -11 20 -22 20zM858 895v-133h-152v133h152zM543 895v-133h-151v133h151z" />
    <glyph glyph-name="Ygrave" unicode="&#x1ef2;" horiz-adv-x="854" 
d="M330 315l-307 338c-10 11 -14 16 -17 23h223c2 -5 7 -14 16 -23l170 -185c4 -4 8 -7 14 -7s10 3 14 7l169 185c9 9 15 18 17 23h219c-4 -7 -8 -12 -18 -23l-317 -350v-303h-183v315zM222 948h190l119 -228h-151z" />
    <glyph glyph-name="ygrave" unicode="&#x1ef3;" horiz-adv-x="854" 
d="M330 315l-307 338c-10 11 -14 16 -17 23h223c2 -5 7 -14 16 -23l170 -185c4 -4 8 -7 14 -7s10 3 14 7l169 185c9 9 15 18 17 23h219c-4 -7 -8 -12 -18 -23l-317 -350v-303h-183v315zM222 948h190l119 -228h-151z" />
    <glyph glyph-name="endash" unicode="&#x2013;" horiz-adv-x="646" 
d="M32 280v115h582v-115h-582z" />
    <glyph glyph-name="emdash" unicode="&#x2014;" horiz-adv-x="940" 
d="M2 280v115h937v-115h-937z" />
    <glyph glyph-name="quoteleft" unicode="&#x2018;" horiz-adv-x="301" 
d="M221 337h-183l83 339h142z" />
    <glyph glyph-name="quoteright" unicode="&#x2019;" horiz-adv-x="301" 
d="M81 676h182l-83 -339h-142z" />
    <glyph glyph-name="quotesinglbase" unicode="&#x201a;" horiz-adv-x="301" 
d="M81 176h182l-83 -338h-142z" />
    <glyph glyph-name="quotedblleft" unicode="&#x201c;" horiz-adv-x="541" 
d="M221 337h-183l83 339h142zM461 337h-183l83 339h142z" />
    <glyph glyph-name="quotedblright" unicode="&#x201d;" horiz-adv-x="541" 
d="M81 676h182l-83 -339h-142zM321 676h182l-83 -339h-142z" />
    <glyph glyph-name="quotedblbase" unicode="&#x201e;" horiz-adv-x="541" 
d="M81 176h182l-83 -338h-142zM321 176h182l-83 -338h-142z" />
    <glyph glyph-name="dagger" unicode="&#x2020;" horiz-adv-x="517" 
d="M312 0h-100v470h-172v85h172v121h100v-121h164v-85h-164v-470z" />
    <glyph glyph-name="daggerdbl" unicode="&#x2021;" horiz-adv-x="517" 
d="M312 0h-100v120h-172v86h172v264h-172v85h172v121h100v-121h164v-85h-164v-264h164v-86h-164v-120z" />
    <glyph glyph-name="bullet" unicode="&#x2022;" horiz-adv-x="456" 
d="M406 338c0 -44 -15 -82 -43 -107c-32 -29 -65 -39 -124 -39h-22c-59 0 -91 10 -122 39c-28 26 -45 63 -45 107s17 81 45 106c31 29 63 41 122 41h22c59 0 92 -11 124 -41c28 -25 43 -62 43 -106z" />
    <glyph glyph-name="ellipsis" unicode="&#x2026;" horiz-adv-x="1251" 
d="M84 176h182v-176h-182v176zM534 176h182v-176h-182v176zM984 176h182v-176h-182v176z" />
    <glyph glyph-name="perthousand" unicode="&#x2030;" horiz-adv-x="1536" 
d="M500 490c0 -113 -80 -186 -212 -186h-28c-134 0 -212 74 -212 186c0 113 81 186 212 186h28c131 0 212 -71 212 -186zM165 490c0 -39 17 -69 95 -69h28c79 0 95 30 95 69c0 40 -16 70 -95 70h-28c-78 0 -95 -27 -95 -70zM301 0h-154l627 676h154zM1024 186
c0 -113 -80 -186 -212 -186h-28c-134 0 -212 74 -212 186c0 113 81 186 212 186h28c131 0 212 -71 212 -186zM689 186c0 -39 17 -69 95 -69h28c79 0 95 30 95 69c0 40 -16 70 -95 70h-28c-78 0 -95 -27 -95 -70zM1487 186c0 -113 -80 -186 -212 -186h-28
c-134 0 -212 74 -212 186c0 113 81 186 212 186h28c131 0 212 -71 212 -186zM1152 186c0 -39 17 -69 95 -69h28c79 0 95 30 95 69c0 40 -16 70 -95 70h-28c-78 0 -95 -27 -95 -70z" />
    <glyph glyph-name="guilsinglleft" unicode="&#x2039;" horiz-adv-x="269" 
d="M127 676h121l-104 -319c-3 -8 -4 -14 -4 -19c0 -6 1 -10 4 -19l104 -319h-121l-99 301c-4 13 -7 24 -7 36c0 13 3 24 7 38z" />
    <glyph glyph-name="guilsinglright" unicode="&#x203a;" horiz-adv-x="269" 
d="M21 676h121l99 -301c4 -14 7 -25 7 -38c0 -12 -3 -23 -7 -36l-99 -301h-121l104 319c3 9 4 13 4 19c0 5 -1 11 -4 19z" />
    <glyph glyph-name="fraction" unicode="&#x2044;" horiz-adv-x="351" 
d="M-61 0h-154l627 676h154z" />
    <glyph glyph-name="zerosuperior" unicode="&#x2070;" horiz-adv-x="518" 
d="M485 490c0 -113 -80 -186 -212 -186h-28c-134 0 -212 74 -212 186c0 113 81 186 212 186h28c131 0 212 -71 212 -186zM150 490c0 -39 17 -69 95 -69h28c79 0 95 30 95 69c0 40 -16 70 -95 70h-28c-78 0 -95 -27 -95 -70z" />
    <glyph glyph-name="foursuperior" unicode="&#x2074;" horiz-adv-x="495" 
d="M456 304h-118v50h-238c-58 0 -73 30 -73 62c0 17 4 36 33 57l267 194c17 12 32 17 48 17c40 0 81 -25 81 -91v-289zM338 453v81c0 5 -3 9 -7 9c-1 0 -4 -1 -5 -2c-105 -76 -116 -77 -116 -85c0 -3 1 -5 6 -5c14 0 30 2 122 2z" />
    <glyph glyph-name="fivesuperior" unicode="&#x2075;" horiz-adv-x="479" 
d="M315 416c12 0 24 4 24 19c0 13 -6 19 -24 19h-238c-26 0 -34 14 -34 41l7 145c1 24 16 36 39 36h355v-116h-266c-6 0 -8 -2 -9 -7l-1 -20c0 -5 2 -7 9 -7h155c77 0 126 -44 126 -111s-46 -111 -126 -111h-297v112h280z" />
    <glyph glyph-name="sixsuperior" unicode="&#x2076;" horiz-adv-x="466" 
d="M151 676h143c-1 -4 -3 -9 -39 -65c-16 -24 -34 -44 -34 -49c0 -2 1 -4 5 -4c11 0 32 2 72 2c92 0 145 -48 145 -128c0 -82 -56 -128 -145 -128h-125c-91 0 -145 49 -145 128c0 28 7 51 25 80l93 151c2 4 4 9 5 13zM190 469c-16 0 -34 -4 -34 -26c0 -15 5 -27 34 -27h102
c27 0 34 12 34 27c0 13 -4 26 -34 26h-102z" />
    <glyph glyph-name="sevensuperior" unicode="&#x2077;" horiz-adv-x="466" 
d="M185 560h-161v116h330c51 0 91 -32 91 -84c0 -16 -5 -29 -15 -45l-152 -229l-7 -14h-149c1 5 4 9 7 15l98 147c32 48 61 74 61 88c0 5 -3 8 -10 8c-17 0 -45 -2 -93 -2z" />
    <glyph glyph-name="eightsuperior" unicode="&#x2078;" horiz-adv-x="485" 
d="M327 304h-170c-77 0 -126 45 -126 111c0 30 10 61 35 76c-24 19 -31 46 -31 73c0 55 36 112 126 112h163c90 0 126 -57 126 -112c0 -27 -7 -54 -31 -73c25 -15 35 -46 35 -76c0 -66 -49 -111 -127 -111zM300 456h-115c-17 0 -28 -9 -28 -24c0 -13 10 -24 28 -24h115
c17 0 27 9 27 24s-9 24 -27 24zM299 568h-114c-17 0 -26 -8 -26 -21s7 -22 26 -22h114c20 0 27 8 27 22c0 13 -8 21 -27 21z" />
    <glyph glyph-name="ninesuperior" unicode="&#x2079;" horiz-adv-x="466" 
d="M320 304h-142c1 5 2 9 23 41c32 50 44 62 44 66s-3 7 -7 7c-10 0 -21 -2 -64 -2c-93 0 -147 49 -147 130c0 80 54 130 147 130h120c95 0 148 -50 148 -130c0 -27 -6 -52 -21 -76l-95 -153c-3 -5 -5 -9 -6 -13zM284 513c16 0 34 5 34 26c0 16 -8 27 -34 27h-103
c-29 0 -34 -13 -34 -27c0 -12 3 -26 34 -26h103z" />
    <glyph glyph-name="zeroinferior" unicode="&#x2080;" horiz-adv-x="518" 
d="M485 186c0 -113 -80 -186 -212 -186h-28c-134 0 -212 74 -212 186c0 113 81 186 212 186h28c131 0 212 -71 212 -186zM150 186c0 -39 17 -69 95 -69h28c79 0 95 30 95 69c0 40 -16 70 -95 70h-28c-78 0 -95 -27 -95 -70z" />
    <glyph glyph-name="oneinferior" unicode="&#x2081;" horiz-adv-x="258" 
d="M29 372h90c71 0 93 -28 93 -103v-270h-116v241c0 11 -5 16 -15 16h-52v116z" />
    <glyph glyph-name="twoinferior" unicode="&#x2082;" horiz-adv-x="455" 
d="M31 256v116h279c69 0 120 -42 120 -111c0 -44 -29 -84 -74 -102c-105 -41 -114 -41 -114 -46c0 -2 2 -4 4 -4c18 0 52 3 115 3h64v-112h-324c-51 0 -77 36 -77 73c0 28 16 54 48 68c187 80 214 83 214 100c0 13 -10 16 -20 16c-18 0 -32 -1 -77 -1h-158z" />
    <glyph glyph-name="threeinferior" unicode="&#x2083;" horiz-adv-x="451" 
d="M36 372h318c47 0 66 -25 66 -57c0 -22 -10 -35 -51 -69c-6 -5 -29 -18 -29 -23c0 -1 1 -2 3 -3c50 -14 87 -49 87 -106c0 -51 -36 -114 -119 -114h-276v112h234c16 0 23 11 23 21c0 8 -7 18 -23 18h-69c-36 0 -44 17 -44 35c0 10 2 19 21 32l16 11c17 12 37 20 37 26
c0 1 -1 3 -3 3c-11 0 -22 -2 -42 -2h-149v116z" />
    <glyph glyph-name="fourinferior" unicode="&#x2084;" horiz-adv-x="495" 
d="M456 0h-118v50h-238c-58 0 -73 30 -73 62c0 17 4 36 33 57l267 194c17 12 32 17 48 17c40 0 81 -25 81 -91v-289zM338 149v81c0 5 -3 9 -7 9c-1 0 -4 -1 -5 -2c-105 -76 -116 -77 -116 -85c0 -3 1 -5 6 -5c14 0 30 2 122 2z" />
    <glyph glyph-name="fiveinferior" unicode="&#x2085;" horiz-adv-x="479" 
d="M315 112c12 0 24 4 24 19c0 13 -6 19 -24 19h-238c-26 0 -34 14 -34 41l7 145c1 24 16 36 39 36h355v-116h-266c-6 0 -8 -2 -9 -7l-1 -20c0 -5 2 -7 9 -7h155c77 0 126 -44 126 -111s-46 -111 -126 -111h-297v112h280z" />
    <glyph glyph-name="sixinferior" unicode="&#x2086;" horiz-adv-x="466" 
d="M151 372h143c-1 -4 -3 -9 -39 -65c-16 -24 -34 -44 -34 -49c0 -2 1 -4 5 -4c11 0 32 2 72 2c92 0 145 -48 145 -128c0 -82 -56 -128 -145 -128h-125c-91 0 -145 49 -145 128c0 28 7 51 25 80l93 151c2 4 4 9 5 13zM190 165c-16 0 -34 -4 -34 -26c0 -15 5 -27 34 -27h102
c27 0 34 12 34 27c0 13 -4 26 -34 26h-102z" />
    <glyph glyph-name="seveninferior" unicode="&#x2087;" horiz-adv-x="466" 
d="M185 256h-161v116h330c51 0 91 -32 91 -84c0 -16 -5 -29 -15 -45l-152 -229l-7 -14h-149c1 5 4 9 7 15l98 147c32 48 61 74 61 88c0 5 -3 8 -10 8c-17 0 -45 -2 -93 -2z" />
    <glyph glyph-name="eightinferior" unicode="&#x2088;" horiz-adv-x="485" 
d="M327 0h-170c-77 0 -126 45 -126 111c0 30 10 61 35 76c-24 19 -31 46 -31 73c0 55 36 112 126 112h163c90 0 126 -57 126 -112c0 -27 -7 -54 -31 -73c25 -15 35 -46 35 -76c0 -66 -49 -111 -127 -111zM300 152h-115c-17 0 -28 -9 -28 -24c0 -13 10 -24 28 -24h115
c17 0 27 9 27 24s-9 24 -27 24zM299 264h-114c-17 0 -26 -8 -26 -21s7 -22 26 -22h114c20 0 27 8 27 22c0 13 -8 21 -27 21z" />
    <glyph glyph-name="nineinferior" unicode="&#x2089;" horiz-adv-x="466" 
d="M320 0h-142c1 5 2 9 23 41c32 50 44 62 44 66s-3 7 -7 7c-10 0 -21 -2 -64 -2c-93 0 -147 49 -147 130c0 80 54 130 147 130h120c95 0 148 -50 148 -130c0 -27 -6 -52 -21 -76l-95 -153c-3 -5 -5 -9 -6 -13zM284 209c16 0 34 5 34 26c0 16 -8 27 -34 27h-103
c-29 0 -34 -13 -34 -27c0 -12 3 -26 34 -26h103z" />
    <glyph glyph-name="Euro" unicode="&#x20ac;" horiz-adv-x="792" 
d="M8 279l42 116h51c12 75 45 142 99 189c71 62 141 92 270 92h303l-87 -169h-175c-127 0 -196 -28 -222 -112h339l-59 -116h-281c24 -83 87 -116 222 -116h237v-163h-248c-158 0 -231 27 -307 99c-50 47 -80 110 -91 180h-93z" />
    <glyph glyph-name="uni20B9" unicode="&#x20b9;" horiz-adv-x="716" 
d="M320 18l-271 250c-10 9 -15 19 -15 30c0 19 15 36 39 36h204c97 0 148 16 164 66h-427l16 101h418c-14 56 -52 73 -163 73h-255l15 102h652l-16 -102h-110c18 -20 31 -45 38 -73h88l-17 -101h-64c-13 -92 -98 -190 -205 -190h-65c-4 0 -7 -3 -7 -6c0 -2 1 -4 3 -6
l199 -176c9 -8 16 -15 21 -22h-227c-4 6 -9 12 -15 18z" />
    <glyph glyph-name="uni20BA" unicode="&#x20ba;" horiz-adv-x="833" 
d="M15 441v116l73 16v103h181v-64l237 54v-116l-237 -53v-79l237 54v-116l-237 -54v-115c0 -10 3 -14 12 -14h140c148 0 202 53 204 165h183c-2 -209 -142 -338 -386 -338h-291c-29 0 -43 14 -43 43v220l-73 -17v117l73 15v79z" />
    <glyph glyph-name="uni20BD" unicode="&#x20bd;" horiz-adv-x="850" 
d="M16 237v119h91v278c0 28 14 42 43 42h435c146 0 238 -82 238 -227c0 -133 -88 -212 -238 -212h-297v-57h473v-118h-473v-62h-181v62h-91v118h91v57h-91zM561 356c45 0 79 26 79 70s-26 71 -78 71h-263c-7 0 -11 -4 -11 -13v-128h273z" />
    <glyph glyph-name="uni2117" unicode="&#x2117;" horiz-adv-x="881" 
d="M301 489h197c75 0 123 -41 123 -113c0 -70 -49 -110 -123 -110h-133v-78h-86v279c0 14 7 22 22 22zM503 345c20 0 33 11 33 29c0 17 -13 29 -33 29h-132c-4 0 -6 -3 -6 -7v-51h138zM845 338c0 -102 -37 -187 -103 -247c-72 -66 -147 -91 -282 -91h-41
c-135 0 -210 25 -282 91c-65 60 -103 145 -103 247c0 103 38 187 103 246c72 66 147 92 282 92h41c135 0 211 -27 282 -92c66 -60 103 -143 103 -246zM757 338c0 77 -27 138 -74 181c-53 49 -113 69 -223 69h-41c-110 0 -169 -20 -223 -69c-47 -43 -74 -104 -74 -181
c0 -76 27 -138 74 -182c53 -50 112 -68 223 -68h41c110 0 169 19 223 68c47 43 74 105 74 182z" />
    <glyph glyph-name="trademark" unicode="&#x2122;" horiz-adv-x="756" 
d="M176 335h-72v266h-71v75h211v-75h-68v-266zM705 335h-75v276l-75 -276h-110l-81 276v-276h-76v341h145l68 -279l65 279h139v-341z" />
    <glyph glyph-name="onethird" unicode="&#x2153;" horiz-adv-x="1030" 
d="M113 676h90c71 0 93 -28 93 -103v-270h-116v241c0 11 -5 16 -15 16h-52v116zM202 0h-154l627 676h154zM587 372h318c47 0 66 -25 66 -57c0 -22 -10 -35 -51 -69c-6 -5 -29 -18 -29 -23c0 -1 1 -2 3 -3c50 -14 87 -49 87 -106c0 -51 -36 -114 -119 -114h-276v112h234
c16 0 23 11 23 21c0 8 -7 18 -23 18h-69c-36 0 -44 17 -44 35c0 10 2 19 21 32l16 11c17 12 37 20 37 26c0 1 -1 3 -3 3c-11 0 -22 -2 -42 -2h-149v116z" />
    <glyph glyph-name="twothirds" unicode="&#x2154;" horiz-adv-x="1158" 
d="M55 560v116h279c69 0 120 -42 120 -111c0 -44 -29 -84 -74 -102c-105 -41 -114 -41 -114 -46c0 -2 2 -4 4 -4c18 0 52 3 115 3h64v-112h-324c-51 0 -77 36 -77 73c0 28 16 54 48 68c187 80 214 83 214 100c0 13 -10 16 -20 16c-18 0 -32 -1 -77 -1h-158zM349 0h-154
l627 676h154zM715 372h318c47 0 66 -25 66 -57c0 -22 -10 -35 -51 -69c-6 -5 -29 -18 -29 -23c0 -1 1 -2 3 -3c50 -14 87 -49 87 -106c0 -51 -36 -114 -119 -114h-276v112h234c16 0 23 11 23 21c0 8 -7 18 -23 18h-69c-36 0 -44 17 -44 35c0 10 2 19 21 32l16 11
c17 12 37 20 37 26c0 1 -1 3 -3 3c-11 0 -22 -2 -42 -2h-149v116z" />
    <glyph glyph-name="uni2155" unicode="&#x2155;" horiz-adv-x="1025" 
d="M127 676h90c71 0 93 -28 93 -103v-270h-116v241c0 11 -5 16 -15 16h-52v116zM202 0h-154l627 676h154zM833 112c12 0 24 4 24 19c0 13 -6 19 -24 19h-238c-26 0 -34 14 -34 41l7 145c1 24 16 36 39 36h355v-116h-266c-6 0 -8 -2 -9 -7l-1 -20c0 -5 2 -7 9 -7h155
c77 0 126 -44 126 -111s-46 -111 -126 -111h-297v112h280z" />
    <glyph glyph-name="uni2156" unicode="&#x2156;" horiz-adv-x="1161" 
d="M55 560v116h279c69 0 120 -42 120 -111c0 -44 -29 -84 -74 -102c-105 -41 -114 -41 -114 -46c0 -2 2 -4 4 -4c18 0 52 3 115 3h64v-112h-324c-51 0 -77 36 -77 73c0 28 16 54 48 68c187 80 214 83 214 100c0 13 -10 16 -20 16c-18 0 -32 -1 -77 -1h-158zM342 0h-154
l627 676h154zM969 112c12 0 24 4 24 19c0 13 -6 19 -24 19h-238c-26 0 -34 14 -34 41l7 145c1 24 16 36 39 36h355v-116h-266c-6 0 -8 -2 -9 -7l-1 -20c0 -5 2 -7 9 -7h155c77 0 126 -44 126 -111s-46 -111 -126 -111h-297v112h280z" />
    <glyph glyph-name="uni2157" unicode="&#x2157;" horiz-adv-x="1090" 
d="M49 676h318c47 0 66 -25 66 -57c0 -22 -10 -35 -51 -69c-6 -5 -29 -18 -29 -23c0 -1 1 -2 3 -3c50 -14 87 -49 87 -106c0 -51 -36 -114 -119 -114h-276v112h234c16 0 23 11 23 21c0 8 -7 18 -23 18h-69c-36 0 -44 17 -44 35c0 10 2 19 21 32l16 11c17 12 37 20 37 26
c0 1 -1 3 -3 3c-11 0 -22 -2 -42 -2h-149v116zM280 0h-154l627 676h154zM898 112c12 0 24 4 24 19c0 13 -6 19 -24 19h-238c-26 0 -34 14 -34 41l7 145c1 24 16 36 39 36h355v-116h-266c-6 0 -8 -2 -9 -7l-1 -20c0 -5 2 -7 9 -7h155c77 0 126 -44 126 -111
s-46 -111 -126 -111h-297v112h280z" />
    <glyph glyph-name="uni2158" unicode="&#x2158;" horiz-adv-x="1182" 
d="M477 304h-118v50h-238c-58 0 -73 30 -73 62c0 17 4 36 33 57l267 194c17 12 32 17 48 17c40 0 81 -25 81 -91v-289zM359 453v81c0 5 -3 9 -7 9c-1 0 -4 -1 -5 -2c-105 -76 -116 -77 -116 -85c0 -3 1 -5 6 -5c14 0 30 2 122 2zM368 0h-154l627 676h154zM990 112
c12 0 24 4 24 19c0 13 -6 19 -24 19h-238c-26 0 -34 14 -34 41l7 145c1 24 16 36 39 36h355v-116h-266c-6 0 -8 -2 -9 -7l-1 -20c0 -5 2 -7 9 -7h155c77 0 126 -44 126 -111s-46 -111 -126 -111h-297v112h280z" />
    <glyph glyph-name="uni2159" unicode="&#x2159;" horiz-adv-x="957" 
d="M125 676h90c71 0 93 -28 93 -103v-270h-116v241c0 11 -5 16 -15 16h-52v116zM202 0h-154l627 676h154zM616 372h143c-1 -4 -3 -9 -39 -65c-16 -24 -34 -44 -34 -49c0 -2 1 -4 5 -4c11 0 32 2 72 2c92 0 145 -48 145 -128c0 -82 -56 -128 -145 -128h-125
c-91 0 -145 49 -145 128c0 28 7 51 25 80l93 151c2 4 4 9 5 13zM655 165c-16 0 -34 -4 -34 -26c0 -15 5 -27 34 -27h102c27 0 34 12 34 27c0 13 -4 26 -34 26h-102z" />
    <glyph glyph-name="uni215A" unicode="&#x215a;" horiz-adv-x="1068" 
d="M328 416c12 0 24 4 24 19c0 13 -6 19 -24 19h-238c-26 0 -34 14 -34 41l7 145c1 24 16 36 39 36h355v-116h-266c-6 0 -8 -2 -9 -7l-1 -20c0 -5 2 -7 9 -7h155c77 0 126 -44 126 -111s-46 -111 -126 -111h-297v112h280zM313 0h-154l627 676h154zM727 372h143
c-1 -4 -3 -9 -39 -65c-16 -24 -34 -44 -34 -49c0 -2 1 -4 5 -4c11 0 32 2 72 2c92 0 145 -48 145 -128c0 -82 -56 -128 -145 -128h-125c-91 0 -145 49 -145 128c0 28 7 51 25 80l93 151c2 4 4 9 5 13zM766 165c-16 0 -34 -4 -34 -26c0 -15 5 -27 34 -27h102
c27 0 34 12 34 27c0 13 -4 26 -34 26h-102z" />
    <glyph glyph-name="oneeighth" unicode="&#x215b;" horiz-adv-x="988" 
d="M116 676h90c71 0 93 -28 93 -103v-270h-116v241c0 11 -5 16 -15 16h-52v116zM202 0h-154l627 676h154zM812 0h-170c-77 0 -126 45 -126 111c0 30 10 61 35 76c-24 19 -31 46 -31 73c0 55 36 112 126 112h163c90 0 126 -57 126 -112c0 -27 -7 -54 -31 -73
c25 -15 35 -46 35 -76c0 -66 -49 -111 -127 -111zM785 152h-115c-17 0 -28 -9 -28 -24c0 -13 10 -24 28 -24h115c17 0 27 9 27 24s-9 24 -27 24zM784 264h-114c-17 0 -26 -8 -26 -21s7 -22 26 -22h114c20 0 27 8 27 22c0 13 -8 21 -27 21z" />
    <glyph glyph-name="threeeighths" unicode="&#x215c;" horiz-adv-x="1062" 
d="M49 676h318c47 0 66 -25 66 -57c0 -22 -10 -35 -51 -69c-6 -5 -29 -18 -29 -23c0 -1 1 -2 3 -3c50 -14 87 -49 87 -106c0 -51 -36 -114 -119 -114h-276v112h234c16 0 23 11 23 21c0 8 -7 18 -23 18h-69c-36 0 -44 17 -44 35c0 10 2 19 21 32l16 11c17 12 37 20 37 26
c0 1 -1 3 -3 3c-11 0 -22 -2 -42 -2h-149v116zM280 0h-154l627 676h154zM886 0h-170c-77 0 -126 45 -126 111c0 30 10 61 35 76c-24 19 -31 46 -31 73c0 55 36 112 126 112h163c90 0 126 -57 126 -112c0 -27 -7 -54 -31 -73c25 -15 35 -46 35 -76c0 -66 -49 -111 -127 -111z
M859 152h-115c-17 0 -28 -9 -28 -24c0 -13 10 -24 28 -24h115c17 0 27 9 27 24s-9 24 -27 24zM858 264h-114c-17 0 -26 -8 -26 -21s7 -22 26 -22h114c20 0 27 8 27 22c0 13 -8 21 -27 21z" />
    <glyph glyph-name="fiveeighths" unicode="&#x215d;" horiz-adv-x="1099" 
d="M328 416c12 0 24 4 24 19c0 13 -6 19 -24 19h-238c-26 0 -34 14 -34 41l7 145c1 24 16 36 39 36h355v-116h-266c-6 0 -8 -2 -9 -7l-1 -20c0 -5 2 -7 9 -7h155c77 0 126 -44 126 -111s-46 -111 -126 -111h-297v112h280zM313 0h-154l627 676h154zM923 0h-170
c-77 0 -126 45 -126 111c0 30 10 61 35 76c-24 19 -31 46 -31 73c0 55 36 112 126 112h163c90 0 126 -57 126 -112c0 -27 -7 -54 -31 -73c25 -15 35 -46 35 -76c0 -66 -49 -111 -127 -111zM896 152h-115c-17 0 -28 -9 -28 -24c0 -13 10 -24 28 -24h115c17 0 27 9 27 24
s-9 24 -27 24zM895 264h-114c-17 0 -26 -8 -26 -21s7 -22 26 -22h114c20 0 27 8 27 22c0 13 -8 21 -27 21z" />
    <glyph glyph-name="seveneighths" unicode="&#x215e;" horiz-adv-x="1029" 
d="M209 560h-161v116h330c51 0 91 -32 91 -84c0 -16 -5 -29 -15 -45l-152 -229l-7 -14h-149c1 5 4 9 7 15l98 147c32 48 61 74 61 88c0 5 -3 8 -10 8c-17 0 -45 -2 -93 -2zM238 0h-154l627 676h154zM853 0h-170c-77 0 -126 45 -126 111c0 30 10 61 35 76
c-24 19 -31 46 -31 73c0 55 36 112 126 112h163c90 0 126 -57 126 -112c0 -27 -7 -54 -31 -73c25 -15 35 -46 35 -76c0 -66 -49 -111 -127 -111zM826 152h-115c-17 0 -28 -9 -28 -24c0 -13 10 -24 28 -24h115c17 0 27 9 27 24s-9 24 -27 24zM825 264h-114
c-17 0 -26 -8 -26 -21s7 -22 26 -22h114c20 0 27 8 27 22c0 13 -8 21 -27 21z" />
    <glyph glyph-name="partialdiff" unicode="&#x2202;" horiz-adv-x="662" 
d="M268 577v108c22 3 44 6 69 6c153 0 294 -82 294 -307c0 -197 -74 -398 -315 -398c-198 0 -285 86 -285 219c0 171 110 236 265 236c85 0 162 -33 197 -83c2 13 3 24 3 44c0 118 -74 179 -184 179c-15 0 -28 0 -44 -4zM472 258c-25 44 -63 75 -166 75
c-83 0 -134 -41 -134 -129c0 -73 55 -112 133 -112c96 0 151 54 167 166z" />
    <glyph glyph-name="product" unicode="&#x220f;" horiz-adv-x="632" 
d="M582 -214h-113v801h-307v-801h-112v890h532v-890z" />
    <glyph glyph-name="summation" unicode="&#x2211;" horiz-adv-x="632" 
d="M588 -214h-569v18l313 426l-313 428v18h569v-109h-360l235 -337l-235 -338h360v-106z" />
    <glyph glyph-name="minus" unicode="&#x2212;" horiz-adv-x="632" 
d="M581 408v-133h-532v133h532z" />
    <glyph glyph-name="radical" unicode="&#x221a;" horiz-adv-x="632" 
d="M393 0h-135l-112 346h-103v107h191l87 -299h9l137 522h129z" />
    <glyph glyph-name="infinity" unicode="&#x221e;" horiz-adv-x="935" 
d="M465 243c-46 -72 -117 -120 -231 -120c-115 0 -200 79 -200 227c0 150 87 229 200 229c114 0 179 -50 231 -123c58 73 124 123 237 123c115 0 197 -80 197 -229c0 -148 -82 -227 -197 -227s-183 48 -237 120zM412 345c-43 58 -85 100 -158 100c-71 0 -97 -40 -97 -95
c0 -63 25 -99 97 -99c77 0 125 46 158 94zM523 345c34 -48 81 -94 158 -94c72 0 98 36 98 99c0 55 -27 95 -98 95s-117 -42 -158 -100z" />
    <glyph glyph-name="integral" unicode="&#x222b;" horiz-adv-x="632" 
d="M376 648v-677c0 -103 -43 -154 -132 -154h-69v94h37c30 0 43 19 43 52v676c0 103 43 154 132 154h69v-94h-37c-30 0 -43 -19 -43 -51z" />
    <glyph glyph-name="approxequal" unicode="&#x2248;" horiz-adv-x="632" 
d="M581 567v-139c-36 -36 -85 -55 -157 -55c-80 0 -150 71 -234 71c-55 0 -91 -15 -131 -68h-10v138c27 34 67 55 137 55c96 0 167 -72 243 -72c63 0 104 20 143 70h9zM582 307v-139c-36 -36 -85 -55 -157 -55c-80 0 -150 71 -234 71c-55 0 -91 -15 -131 -68h-10v138
c27 34 67 55 137 55c96 0 167 -72 243 -72c63 0 104 20 143 70h9z" />
    <glyph glyph-name="notequal" unicode="&#x2260;" horiz-adv-x="632" 
d="M582 541v-134h-146l-95 -130h241v-133h-337l-105 -144h-140l105 144h-55v133h151l95 130h-246v134h343l99 135h140l-99 -135h49z" />
    <glyph glyph-name="lessequal" unicode="&#x2264;" horiz-adv-x="632" 
d="M581 310v-139l-461 152c-46 15 -71 51 -71 99c0 47 27 83 71 97l461 154v-141l-354 -99c-5 -2 -8 -6 -8 -11c0 -6 3 -10 8 -12zM582 88v-133h-532v133h532z" />
    <glyph glyph-name="greaterequal" unicode="&#x2265;" horiz-adv-x="632" 
d="M49 171v139l354 100c6 2 9 6 9 12c0 5 -3 9 -9 11l-354 99v141l461 -154c44 -14 71 -50 71 -97c0 -48 -24 -84 -71 -99zM582 88v-133h-532v133h532z" />
    <glyph glyph-name="lozenge" unicode="&#x25ca;" horiz-adv-x="632" 
d="M57 338l155 303c16 31 41 50 103 50s91 -19 107 -50l151 -303l-151 -303c-16 -32 -45 -49 -107 -49c-61 0 -88 17 -107 55zM200 338l100 -233c2 -5 9 -7 15 -7c7 0 14 2 16 7l99 233l-99 232c-2 5 -9 8 -16 8c-6 0 -13 -1 -16 -8z" />
    <glyph glyph-name=".null" horiz-adv-x="0" 
 />
    <glyph glyph-name="CR" horiz-adv-x="403" 
 />
    <glyph glyph-name="uni20B4" unicode="&#x20b4;" horiz-adv-x="960" 
d="M132 497v179h496c120 0 235 -65 235 -202c0 -25 -4 -48 -12 -70h46v-133h-563c-30 -4 -43 -26 -43 -50c0 -26 14 -48 62 -48h492v-173h-524c-144 0 -221 98 -221 202c0 24 4 47 12 69h-49v133h574c21 2 37 22 37 45c0 24 -12 48 -56 48h-486z" />
    <glyph glyph-name="uni20A9" unicode="&#x20a9;" horiz-adv-x="1377" 
d="M63 282v115h66l-41 247c-2 13 -3 22 -3 32h191c0 -7 1 -17 2 -26l39 -253h139l44 152c28 97 82 142 191 142c108 0 159 -45 184 -137l43 -157h140l43 253c2 10 2 20 2 26h189c0 -10 -1 -18 -3 -32l-44 -247h69v-115h-89l-26 -146c-16 -89 -76 -150 -198 -150
c-102 0 -164 49 -191 151l-38 145h-167l-41 -145c-29 -104 -92 -151 -196 -151c-123 0 -182 65 -196 151l-24 145h-85zM691 530c-11 0 -18 -5 -22 -20l-32 -113h105l-29 113c-4 15 -11 20 -22 20zM1000 165c14 0 21 7 24 23l15 94h-90l27 -96c4 -16 12 -21 24 -21zM373 165
c12 0 20 5 24 21l27 96h-90l15 -94c2 -16 10 -23 24 -23z" />
    <glyph glyph-name="uni20AA" unicode="&#x20aa;" horiz-adv-x="1078" 
d="M245 0h-182v576h430c182 0 267 -99 267 -265v-111h-183v119c0 55 -24 84 -84 84h-248v-403zM833 576h182v-576h-430c-182 0 -267 99 -267 265v111h183v-119c0 -55 24 -84 84 -84h248v403z" />
    <glyph glyph-name="uni20AD" unicode="&#x20ad;" horiz-adv-x="917" 
d="M13 292v115h83v269h183v-269h10l298 241c10 8 21 19 28 28h253c-4 -6 -12 -13 -18 -18l-324 -251h325v-115h-304l330 -267c9 -8 18 -16 26 -25h-270c-8 9 -18 18 -30 28l-316 264h-8v-292h-183v292h-83z" />
    <glyph glyph-name="uni20B1" unicode="&#x20b1;" horiz-adv-x="969" 
d="M63 372v95h50v167c0 28 15 42 44 42h448c171 0 255 -100 274 -209h27v-95h-29c-21 -109 -110 -202 -272 -202h-311v-170h-181v372h-50zM294 336h315c40 0 63 12 78 32l3 4h-396v-36zM294 483v-16h392c-15 18 -38 30 -77 30h-302c-8 0 -13 -4 -13 -14z" />
    <glyph glyph-name="uni20B2" unicode="&#x20b2;" horiz-adv-x="807" 
d="M167 0h-154l105 114c-52 58 -83 137 -83 224c0 181 135 338 359 338h400l-458 -494c17 -4 36 -7 58 -7h173c9 0 13 4 13 14v181h180v-327c0 -29 -14 -43 -43 -43h-323c-74 0 -136 16 -187 43zM216 337c0 -33 10 -63 27 -89l231 249h-80c-120 0 -178 -76 -178 -160z" />
    <glyph glyph-name="uni20B8" unicode="&#x20b8;" horiz-adv-x="816" 
d="M20 676h775v-179h-775v179zM20 426h775v-179h-296v-247h-182v247h-297v179z" />
    <glyph glyph-name="uni20BE" unicode="&#x20be;" horiz-adv-x="872" 
d="M280 344v136c-47 -24 -66 -69 -66 -123c0 -83 60 -137 137 -152v-205h-296v173h140v12c-78 37 -149 115 -149 233c0 144 80 248 234 269v53h121v-49h95v49h121v-55c146 -26 222 -131 222 -267h-161c-3 37 -22 59 -61 70v-144h-121v155h-95v-155h-121z" />
    <glyph glyph-name="uni058F" unicode="&#x58f;" horiz-adv-x="777" 
d="M714 200v-133h-50v-67h-183v67h-299v133h299v90h-299v134h299c-2 51 -26 79 -84 79h-377v173h377c177 0 262 -94 267 -252h50v-134h-50v-90h50z" />
    <glyph glyph-name="uni20AE" unicode="&#x20ae;" horiz-adv-x="816" 
d="M166 248v116l151 33v100h-297v179h775v-179h-296v-59l158 35v-116l-158 -35v-78l158 35v-116l-158 -36v-127h-182v87l-151 -34v117l151 33v78z" />
    <glyph glyph-name="uni20BC" unicode="&#x20bc;" horiz-adv-x="869" 
d="M283 476h60v200h182v-200h61c170 0 237 -65 237 -216v-260h-182v240c0 43 -22 63 -67 63h-49v-303h-182v303h-50c-45 0 -65 -21 -65 -63v-240h-182v260c0 151 67 216 237 216z" />
    </font>
</defs>
</svg>
